<?xml version="1.0" encoding="UTF-8" standalone="no"?>
<!-- Created with Inkscape (http://www.inkscape.org/) -->

<svg
   xmlns:dc="http://purl.org/dc/elements/1.1/"
   xmlns:cc="http://creativecommons.org/ns#"
   xmlns:rdf="http://www.w3.org/1999/02/22-rdf-syntax-ns#"
   xmlns:svg="http://www.w3.org/2000/svg"
   xmlns="http://www.w3.org/2000/svg"
   xmlns:sodipodi="http://sodipodi.sourceforge.net/DTD/sodipodi-0.dtd"
   xmlns:inkscape="http://www.inkscape.org/namespaces/inkscape"
   id="svg562"
   viewBox="0 0 1300 1300"
   version="1.0"
   y="0"
   x="0"
   inkscape:version="0.91 r13725"
   sodipodi:docname="antarctica-onglobe.svg"
   width="1300"
   height="1300">
  <defs
     id="defs26030" />
  <sodipodi:namedview
     pagecolor="#ffffff"
     bordercolor="#666666"
     borderopacity="1"
     objecttolerance="10"
     gridtolerance="10"
     guidetolerance="10"
     inkscape:pageopacity="0"
     inkscape:pageshadow="2"
     inkscape:window-width="1916"
     inkscape:window-height="1035"
     id="namedview26028"
     showgrid="false"
     showguides="false"
     fit-margin-top="0"
     fit-margin-left="0"
     fit-margin-right="0"
     fit-margin-bottom="0"
     inkscape:zoom="0.28316322"
     inkscape:cx="654.48281"
     inkscape:cy="607.61564"
     inkscape:window-x="4"
     inkscape:window-y="1"
     inkscape:window-maximized="1"
     inkscape:current-layer="svg562" />
  <metadata
     id="metadata26026">
    <rdf:RDF>
      <cc:Work>
        <dc:format>image/svg+xml</dc:format>
        <dc:type
           rdf:resource="http://purl.org/dc/dcmitype/StillImage" />
        <cc:license
           rdf:resource="http://creativecommons.org/publicdomain/zero/1.0/" />
        <dc:publisher>
          <cc:Agent
             rdf:about="http://openclipart.org/">
            <dc:title>Openclipart</dc:title>
          </cc:Agent>
        </dc:publisher>
        <dc:title>antarctica</dc:title>
        <dc:date></dc:date>
        <dc:description>globe remix by j4p4n</dc:description>
        <dc:source></dc:source>
        <dc:creator>
          <cc:Agent>
            <dc:title>Anonymous</dc:title>
          </cc:Agent>
        </dc:creator>
        <dc:subject>
          <rdf:Bag>
            <rdf:li>antarctica</rdf:li>
            <rdf:li>continent</rdf:li>
            <rdf:li>flag</rdf:li>
            <rdf:li>map</rdf:li>
          </rdf:Bag>
        </dc:subject>
      </cc:Work>
      <cc:License
         rdf:about="http://creativecommons.org/publicdomain/zero/1.0/">
        <cc:permits
           rdf:resource="http://creativecommons.org/ns#Reproduction" />
        <cc:permits
           rdf:resource="http://creativecommons.org/ns#Distribution" />
        <cc:permits
           rdf:resource="http://creativecommons.org/ns#DerivativeWorks" />
      </cc:License>
    </rdf:RDF>
  </metadata>
  <g
     id="g26600"
     transform="translate(313.41749,436.64823)">
    <ellipse
       ry="612.69971"
       rx="593.69006"
       cy="215.33675"
       cx="343.84015"
       id="path26583"
       style="opacity:1;fill:#3a7dce;fill-opacity:1;fill-rule:evenodd;stroke:none;stroke-width:3;stroke-linecap:round;stroke-linejoin:round;stroke-miterlimit:4;stroke-dasharray:none;stroke-opacity:1" />
    <path
       d="m 183.3,238.54 c -4.06,-8.11 -4.06,-8.11 -4.06,-16.22 -2.02,0 -2.4,0.38 -3.58,0.07 -1.17,-0.32 -1.61,7.47 -5.41,5.95 -0.64,-0.76 2.72,-6.4 -0.92,-8.74 -1.17,-0.76 0.28,-5.38 -0.22,-7.41 0,0 -4.63,2.41 -8.11,-6.08 -1.71,-2.22 -4.05,2.03 -4.05,2.03 0,0 1.01,2.59 -0.83,3.23 -2.59,-1.91 -4.5,-0.91 -7.79,-3.52 -3.29,-2.61 0.7,-5.61 -5.57,-7.82 4.05,-10.14 4.05,-8.11 14.19,-12.16 -6.09,-4.06 -6.09,-4.06 -10.14,-10.14 -6.08,-2.03 -8.11,-4.05 -14.19,-8.11 -8.1,-10.13 -12.16,-30.4 -12.16,-44.59 5.13,-4.75 12.16,16.22 22.3,22.3 l 14.19,6.08 c 8.1,4.05 10.13,8.11 16.21,12.16 0,0 18.24,6.08 18.24,6.08 8.11,6.08 12.16,14.19 18.24,16.22 6.59,0 7.86,-3.8 9.97,-4.03 11.92,-0.61 18,-2.15 20.37,-5.73 2.41,-2.85 8.18,1.65 24.39,-4.43 0,0 -2.03,-8.11 -2.03,-8.11 0,0 4.31,-3.55 10.14,-2.03 -0.16,-3.7 -0.54,-13.58 5.2,-18.04 -3.49,-3.66 -1.15,-6.28 -1.15,-6.28 0,0 3.23,-3.1 3.61,-4.75 -1.71,-8.93 1.48,-9.07 2.2,-11.7 0.72,-2.62 -2.76,-1.72 -1.78,-5.35 0.98,-3.62 6.85,-4.48 7.64,-7.46 0.79,-2.99 -1.68,-4.48 -1.53,-5.2 1.26,-2.84 0.19,-9.56 0,-12.156 10.89,-2.914 14.44,-11.782 18.24,-8.108 2.03,-12.161 4.05,-16.215 16.21,-16.215 1.71,-3.737 -4.43,-6.904 -2.02,-8.108 4.05,-0.506 7.15,-0.253 11.91,5.891 1.5,1.947 1.77,-2.85 3.29,-3.357 1.52,-0.507 5.16,-0.515 5.7,-2.914 0.57,-2.47 1.39,-5.7 3.42,-9.754 1.71,-3.294 3.04,1.267 4.56,7.727 8.55,0.317 27.87,2.218 35.98,4.434 6.08,1.584 10.13,-1.583 15.96,-2.217 4.3,4.307 8.36,1.077 10.64,10.261 3.22,4.956 8.49,0.444 9.63,1.901 6.77,18.685 30.08,6.08 31.86,6.397 2.97,0 6.61,8.355 8.95,8.147 3.81,-0.641 2.73,-3.238 6.06,-2.193 -0.89,7.031 6.52,15.138 6.52,20.394 0,0 1.81,0.89 3.48,-0.67 1.67,-1.56 3.2,-5.568 4.69,-5.473 3.55,0.507 4.99,0.963 9.07,1.673 11,3.76 16.59,4.61 20.86,6.53 1.99,3.63 3.91,5.49 7.94,4.82 3.32,2.23 0.9,5.16 2.86,5.35 4.06,-2.03 5.38,-4.25 9.44,-2.22 4.05,2.03 8.11,6.08 10.13,10.13 0,2.03 -2.02,10.14 0,22.3 1.02,4.05 1.51,7.27 5.86,14.22 -1.15,7.14 5.48,19.16 5.48,22.2 0,4.05 -3.23,6.14 -5.26,10.2 8.11,6.08 0,16.21 -4.05,22.29 30.4,6.08 16.22,18.24 40.54,12.16 -6.08,14.19 -3.93,13.05 2.15,27.24 -12.16,8.11 -0.25,10.58 -8.36,20.71 -0.51,0.64 4.81,8.81 12.29,8.81 -2.03,16.21 -8.11,10.13 -6.08,34.45 -15.96,-0.31 -9.5,18.18 -20.27,16.22 0.63,11.59 6.14,12.6 4.05,24.32 -8.1,2.03 -8.1,2.03 -12.16,8.11 l -6.08,-2.03 c -2.03,10.14 -6.08,12.16 0,22.3 0,0 -7.85,0.25 -10.13,0 -0.19,3.48 3.48,4.43 4.05,8.11 -0.32,1.45 -11.53,7.85 -20.27,8.1 -2.28,5.01 6.08,10.33 5.57,12.86 -9.5,1.84 -13.68,13.49 -13.68,13.49 0,0 4.88,1.97 4.06,4.06 -2.6,-1.91 -4.06,-2.03 -8.11,-2.03 -2.03,0.51 -6.97,-0.12 -11.7,7.87 -5.2,1.71 -7.66,1.09 -11.6,6.31 -1.75,-4.97 -4.26,0.05 -7.33,1.97 -3.07,1.93 -7.2,6.73 -7.76,6.53 0.13,-1.4 1.91,-6.47 1.91,-6.47 l -10.14,2.03 c 0,0 -0.45,0.04 -1.25,0.13 -0.79,0.07 -0.58,-5.92 -2.5,-5.7 -1.92,0.22 -7.42,7.54 -9.29,7.77 -1.87,0.22 -2.46,-2.33 -4.07,-2.11 -1.62,0.22 -4.76,7.72 -5.9,7.92 -1.14,0.2 -5.66,-4.56 -9.54,-3.89 -19.96,7.03 -23.12,-13.87 -26.23,-2.09 -4.18,-2.22 -3.45,-0.93 -7.7,0.18 -2.71,0.7 -2.96,-3.58 -5.37,-3.52 -4.82,0.14 -4.57,4.7 -7.2,3.34 -2.15,-9.5 -15.14,-7.79 -16.4,-11.85 -1.03,-4.22 5.62,-4.2 7.78,-7.07 1.64,-4.13 -1.72,-5.7 4.96,-9.69 8.7,-5.89 3.7,-8.11 5.22,-12.53 2.73,-6.39 2.75,-7.95 0.47,-13.59 0,0 -6.78,-18.24 -8.11,-18.24 -4.05,-1.14 -4.05,6.71 -10.01,8.87 -12.16,4.05 -33.63,-10.26 -37.37,-10.26 -3.42,0.06 -19.26,3.75 -18.66,-4.15 -2.36,7.68 -11.07,1.8 -11.61,1.8 -8.11,0 -5.01,6.27 -10.45,6.02 -2.48,-0.82 -27.43,-2.28 -27.43,-2.28 l 0,4.05 -16.21,-8.1 -14.19,-4.06 c -12.16,-4.05 -6.08,-14.19 -26.35,-8.11 l 0,-12.16 -10.14,0 c 4.06,-24.32 0,-12.16 -2.02,-34.45 l -8.11,2.02 c -8.11,-10.95 11.27,-8.86 -6.08,-16.21 0,0 0.31,-12.1 -4.05,-8.11 -0.89,0.51 2.02,6.08 2.02,6.08 -16.21,-2.03 -20.27,-6.08 -20.27,-22.29 0,0 13.37,1.9 12.16,0 -1.9,-3.04 -4.37,-22.81 -3.92,-24.14 -0.19,-2.66 12.41,-9.37 9.97,-15.77 1.56,-0.57 6.12,-0.63 6.12,-0.63"
       style="fill:#ffffff"
       id="selection_to_path"
       inkscape:connector-curvature="0" />
    <path
       d="m 595.51,297.57 c -0.59,1.33 -0.49,2.66 0.13,3.61 1.1,-1.64 0.17,-2.4 -0.13,-3.61 z"
       style="fill:none;stroke:#ffffff;stroke-width:2.0269001pt;stroke-linecap:round;stroke-linejoin:round"
       id="path556"
       inkscape:connector-curvature="0" />
    <path
       d="m 119.51,148.15 c 0,0 -3.1,-0.38 -2.41,2.35 1.02,-2.09 2.35,-2.22 2.41,-2.35 z"
       style="fill:none;stroke:#ffffff;stroke-width:2.53360009;stroke-linejoin:round"
       id="path557"
       inkscape:connector-curvature="0" />
    <path
       d="m 120.21,141.82 c -1.71,0.06 -3.8,-0.25 -3.11,2.47 1.02,-2.09 3.05,-2.34 3.11,-2.47 z"
       style="fill:none;stroke:#ffffff;stroke-width:2.53360009;stroke-linejoin:round"
       id="path558"
       inkscape:connector-curvature="0" />
    <path
       d="m 131.89,178.11 c 0,0 2.66,-0.19 1.96,2.54 -1.01,-2.09 -1.9,-2.41 -1.96,-2.54 z"
       style="fill:none;stroke:#ffffff;stroke-width:2.53360009;stroke-linejoin:round"
       id="path559"
       inkscape:connector-curvature="0" />
    <path
       sodipodi:nodetypes="cccccccccccccccccccccccccccccccccscccccccccccccccccccscccccccccscccccccsscccccccccccccccscccccccccccccccccccccccccccccccccccccc"
       inkscape:connector-curvature="0"
       id="path26585"
       d="m 464.31445,-384.5957 8.56641,11.99218 3.42773,10.28125 -11.99414,13.70704 0,17.13281 13.70703,32.55273 11.99414,37.69336 3.42579,15.41992 18.84765,15.42188 32.55274,13.70508 29.12695,5.14062 42.83398,-6.85351 10.2793,-8.56641 34.26563,6.85352 -5.13868,-20.56055 5.13868,0 51.40039,18.84766 5.14062,-13.70704 4.5e-4,-23.98722 C 636.61418,-326.46359 556.97976,-365.34104 464.31445,-384.5957 Z m -486.587888,116.50586 c -64.61871,57.97065 -169.586002,134.02637 -215.880412,364.942463 l 10.2808,-10.280357 13.70508,-8.566407 13.70703,-23.986328 15.41992,-17.134765 20.56055,15.419922 29.12695,32.554687 35.980473,15.419925 30.839844,22.27343 41.119141,23.98633 58.253906,-5.14062 -3.425782,-15.41992 c 10e-7,0 -25.7008856,-3.42579 -34.2675776,-3.42579 -8.5666924,0 -8.5664064,-13.70703 -8.5664064,-13.70703 L -30.839844,84.859375 -46.259766,71.152344 -58.253906,40.3125 -61.679688,7.7578125 l 8.566407,-30.8398435 -13.707031,-5.138672 6.853515,-18.847656 8.566406,-20.560547 -8.566406,-22.273438 6.853516,-17.132816 -5.140625,-10.27929 10.28125,-42.83399 20.558594,-34.26758 11.99414,-44.54687 z m 764.148438,75.38867 -5.13867,15.41992 -20.56055,6.85352 c 0,0 6.1e-4,5.13882 5.14063,11.99218 5.14001,6.85335 17.13281,17.13282 17.13281,17.13282 l 22.27344,-6.85157 13.70703,-11.99414 -3.42774,-15.41992 -11.99218,-11.99414 z m 39.4082,640.78711 -13.70703,34.26758 -8.5664,23.98632 c 0,0 -13.70659,39.40687 -15.41993,44.54688 -1.71334,5.14002 -30.84179,35.98047 -30.84179,35.98047 l -39.40625,3.42578 0,20.56055 -35.98047,8.5664 -25.69922,8.56641 -20.56055,15.41992 -17.13281,22.27344 c 0,0 6.85246,3.42745 3.42578,11.99414 -3.42667,8.56669 -6.85351,30.84046 -6.85351,35.98047 0,5.14002 11.99414,3.42578 11.99414,3.42578 l 54.82617,-8.56641 42.83398,-11.99219 18.84766,-3.42773 0,-22.27344 18.8457,-17.13281 27.41406,-13.70703 27.41211,-23.98633 22.27344,-30.83984 22.27344,-23.98828 5.14062,-27.41211 11.99414,-41.1211 6.85352,-13.70703 -1.71484,-25.69922 -20.5586,0 c 0,0 -5.14079,1.71396 -11.99414,5.14063 -6.85336,3.42668 -13.70703,-8.56641 -13.70703,-8.56641 z m -185.04101,159.34179 -15.41992,1.71289 -6.85352,6.85352 1.71289,10.2793 3.42578,10.28125 20.56055,-15.42188 0,-8.5664 z m -164.48047,44.54688 -11.99414,5.13867 -10.2793,15.41992 -8.5664,0 -3.42774,8.56641 -13.70703,8.56836 3.42773,3.42578 17.13282,1.71289 1.71289,-10.2793 5.14062,-6.85351 17.13281,-6.85352 10.28125,-8.5664 -1.71484,-6.85352 z m -54.82813,42.83203 -6.85156,6.85352 0,8.5664 -15.42187,10.28125 10.28125,1.71289 11.99218,-3.42578 10.28125,6.85156 10.2793,3.42774 3.42774,-3.42774 -8.56836,-3.42578 -6.85157,-6.85351 5.13867,-8.56641 -8.5664,-3.42773 z"
       style="fill:#aad400;fill-rule:evenodd;stroke:#82a009;stroke-width:1px;stroke-linecap:butt;stroke-linejoin:miter;stroke-opacity:1" />
  </g>
</svg>
