<?xml version="1.0" encoding="UTF-8"?>
<svg version="1.1" xmlns="http://www.w3.org/2000/svg" width="682" height="684">
<path d="M0 0 C0.69405945 0.04338501 1.3881189 0.08677002 2.10321045 0.13146973 C13.82251328 0.88000664 13.82251328 0.88000664 16.1875 2.0625 C17.77179793 2.31611829 19.36333104 2.52535249 20.95703125 2.7109375 C21.92165283 2.82743652 22.88627441 2.94393555 23.88012695 3.06396484 C25.42446411 3.24886475 25.42446411 3.24886475 27 3.4375 C35.55084255 4.51397654 43.85753865 5.8064688 52.1875 8.0625 C53.49997068 8.40245697 54.81247282 8.7422925 56.125 9.08203125 C65.10094042 11.45255303 73.93630097 14.21145316 82.75 17.125 C83.74878174 17.45330811 84.74756348 17.78161621 85.77661133 18.11987305 C91.74658437 20.12253173 97.48011864 22.40681472 103.1875 25.0625 C104.54071709 25.66879055 105.89477371 26.27321397 107.25 26.875 C107.98347656 27.20242187 108.71695312 27.52984375 109.47265625 27.8671875 C111.64228899 28.82245026 113.81675349 29.7626039 115.99609375 30.6953125 C128.96161716 36.26288777 128.96161716 36.26288777 134.7421875 39.63671875 C136.73308087 40.79754316 138.73513628 41.91601525 140.7578125 43.01953125 C149.11322852 47.60143443 157.11344217 52.52121201 164.98046875 57.8984375 C168.09201858 60.05749916 168.09201858 60.05749916 171.11328125 61.7265625 C171.79777344 62.16742188 172.48226562 62.60828125 173.1875 63.0625 C173.1875 63.7225 173.1875 64.3825 173.1875 65.0625 C173.8475 65.248125 174.5075 65.43375 175.1875 65.625 C178.84565697 67.37786688 181.37476091 69.74746594 184.3203125 72.50390625 C186.20754569 74.27205146 186.20754569 74.27205146 189.1875 75.0625 C190.35670878 76.48451068 191.52526173 77.90948005 192.61328125 79.39453125 C194.3647575 81.25031378 196.31557603 82.45674561 198.44995117 83.83227539 C201.98604165 86.33590893 205.05376627 89.39478594 208.1875 92.375 C209.29702026 93.4259082 209.29702026 93.4259082 210.42895508 94.49804688 C215.37793317 99.22903869 220.19116907 104.06901012 224.875 109.0625 C225.42607422 109.64813721 225.97714844 110.23377441 226.54492188 110.8371582 C229.8530457 114.42281941 232.82660022 118.16021316 235.71606445 122.08935547 C237.56345779 124.56664648 239.51373735 126.94792895 241.47363281 129.33642578 C247.94190895 137.23945963 253.71256445 145.44780793 259.1875 154.0625 C259.86296875 155.11824219 260.5384375 156.17398438 261.234375 157.26171875 C263.26674043 160.50130924 265.24761254 163.76702853 267.1875 167.0625 C267.56874023 167.70993164 267.94998047 168.35736328 268.34277344 169.02441406 C275.51276896 181.31335884 281.53711925 194.01244254 287.1875 207.0625 C287.62787598 208.06845215 287.62787598 208.06845215 288.07714844 209.09472656 C296.77741994 229.13008603 302.78817528 250.61909575 307.375 271.9375 C307.62588379 273.09741455 307.62588379 273.09741455 307.88183594 274.28076172 C308.84760319 278.91744018 309.51547382 283.50074459 309.93481445 288.21923828 C310.09944203 290.15437769 310.09944203 290.15437769 311.1875 292.0625 C311.76289266 296.34525625 312.14213056 300.64934444 312.54467773 304.95141602 C312.74438629 307.06557206 312.95667343 309.17818889 313.16992188 311.29101562 C314.77846496 327.82316971 314.18062926 344.04498083 313.015625 360.59448242 C312.8110931 363.52012435 312.61990091 366.44644288 312.4296875 369.37304688 C312.3002729 371.26828353 312.17009197 373.16346805 312.0390625 375.05859375 C311.98376373 375.91609726 311.92846497 376.77360077 311.87149048 377.65708923 C311.30095128 385.51636495 309.78390912 393.08045006 307.75 400.6875 C306.53307912 405.42740682 305.599102 410.18346319 304.75 415 C303.56918382 421.51889863 301.96688013 427.74586492 299.85791016 434.02636719 C299.06714036 436.42804966 298.32215927 438.84245287 297.57421875 441.2578125 C291.34738888 461.01631058 283.3071218 479.97763629 273.1875 498.0625 C272.43581854 499.45742856 271.68550985 500.85309916 270.9375 502.25 C264.15341038 514.38766832 256.41473326 525.86712304 248.1875 537.0625 C247.66800781 537.78566406 247.14851562 538.50882813 246.61328125 539.25390625 C243.11229811 544.05898053 239.27330845 548.57424525 235.40844727 553.08764648 C232.58000175 556.39309937 229.86190964 559.75507405 227.1875 563.1875 C222.61435097 568.8121395 217.54478679 573.92343711 212.4375 579.0625 C211.60863281 579.90055176 210.77976562 580.73860352 209.92578125 581.60205078 C208.73275391 582.78903564 208.73275391 582.78903564 207.515625 584 C206.8030957 584.71027344 206.09056641 585.42054688 205.35644531 586.15234375 C203.1875 588.0625 203.1875 588.0625 200.57324219 589.625 C197.78883158 591.30271282 196.22700156 593.46262766 194.1953125 595.95703125 C189.76077118 600.60726038 184.34139087 604.25368143 179.1875 608.0625 C178.43726563 608.65546875 177.68703125 609.2484375 176.9140625 609.859375 C175.1875 611.0625 175.1875 611.0625 173.1875 611.0625 C173.1875 611.7225 173.1875 612.3825 173.1875 613.0625 C171.84917463 614.01341539 170.49798896 614.94837279 169.109375 615.82421875 C167.03248601 617.1623769 165.05922433 618.60744025 163.0625 620.0625 C155.50743214 625.38329474 147.46717449 629.95552166 139.52001953 634.65820312 C137.39809281 635.93571229 135.31566299 637.25933982 133.234375 638.6015625 C128.53009111 641.55568834 123.57774309 643.93638585 118.5625 646.3125 C117.55904541 646.78848633 116.55559082 647.26447266 115.52172852 647.75488281 C81.75986266 663.59867616 44.84372052 675.91992538 7.33984375 677.81640625 C4.16199827 677.93687146 4.16199827 677.93687146 1.1875 679.0625 C-0.78021899 679.156326 -2.75099316 679.1904311 -4.72094727 679.19189453 C-6.5428231 679.19662277 -6.5428231 679.19662277 -8.40150452 679.20144653 C-9.71404709 679.1994223 -11.02658966 679.19739807 -12.37890625 679.1953125 C-13.73746254 679.1959861 -15.09601871 679.19695659 -16.45457458 679.19821167 C-19.30005034 679.19968551 -22.14549469 679.19754383 -24.9909668 679.19287109 C-28.64181544 679.18716855 -32.29259066 679.1904581 -35.94343662 679.19644356 C-38.74778296 679.20005301 -41.55211181 679.19890891 -44.35645866 679.19631577 C-46.3584536 679.19532265 -48.36044921 679.19836377 -50.36244202 679.20144653 C-51.57387375 679.19829437 -52.78530548 679.19514221 -54.03344727 679.19189453 C-55.63870018 679.19070114 -55.63870018 679.19070114 -57.27638245 679.18948364 C-59.8125 679.0625 -59.8125 679.0625 -61.8125 678.0625 C-63.39511117 677.86582705 -64.98401396 677.71843317 -66.57421875 677.59765625 C-67.52876953 677.51966797 -68.48332031 677.44167969 -69.46679688 677.36132812 C-71.46921778 677.20531207 -73.47182119 677.05161889 -75.47460938 676.90039062 C-80.85130514 676.45684027 -85.63660625 675.66310221 -90.8125 674.0625 C-93.499379 673.57397655 -96.17915619 673.11632059 -98.875 672.6875 C-106.71396661 671.36555164 -114.21466725 669.41603742 -121.8125 667.0625 C-122.97136719 666.72734375 -124.13023437 666.3921875 -125.32421875 666.046875 C-170.29941144 652.70000486 -212.42459174 629.86850278 -247.8125 599.0625 C-249.08240902 597.97808331 -250.3530494 596.89452132 -251.625 595.8125 C-252.68776511 594.89614071 -253.75022714 593.97942988 -254.8125 593.0625 C-255.39845947 592.56065186 -255.98441895 592.05880371 -256.58813477 591.54174805 C-261.55884012 587.24757045 -266.2912251 582.76679872 -270.9375 578.125 C-271.61425781 577.46048828 -272.29101562 576.79597656 -272.98828125 576.11132812 C-276.85957837 572.25126301 -280.23624715 568.2979526 -283.43945312 563.87084961 C-285.340903 561.3665752 -287.55948669 559.24989156 -289.8125 557.0625 C-291.37952321 555.25079211 -292.92150585 553.41711828 -294.4375 551.5625 C-295.19289063 550.6446875 -295.94828125 549.726875 -296.7265625 548.78125 C-298.64195795 546.28477952 -300.22840204 543.77559595 -301.8125 541.0625 C-302.79898338 539.63638816 -303.79981748 538.2201287 -304.8125 536.8125 C-313.34112233 524.67769487 -321.10565799 512.29121494 -327.8125 499.0625 C-328.48685122 497.75253829 -329.16133255 496.44264356 -329.8359375 495.1328125 C-337.14883822 480.82693954 -343.40016323 466.18644318 -348.8125 451.0625 C-349.24433594 449.87398438 -349.67617188 448.68546875 -350.12109375 447.4609375 C-353.56616166 437.6086872 -355.96536271 427.59687047 -358.26904297 417.42724609 C-358.73233104 415.41133942 -359.22450384 413.40210683 -359.72265625 411.39453125 C-361.47717047 404.29712449 -362.51606756 397.21235614 -363.34765625 389.9609375 C-363.75825304 386.51744506 -364.25647418 383.10986045 -364.8125 379.6875 C-367.98981147 359.03497546 -369.6958923 338.03002803 -366.3203125 317.27734375 C-365.64216084 312.98412207 -365.34521373 308.6898647 -365.05859375 304.35546875 C-364.8125 302.0625 -364.8125 302.0625 -363.8125 300.0625 C-363.55813968 298.40515512 -363.34921243 296.74071529 -363.1640625 295.07421875 C-363.04756348 294.06447998 -362.93106445 293.05474121 -362.81103516 292.0144043 C-362.68776855 290.93715088 -362.56450195 289.85989746 -362.4375 288.75 C-361.38567509 280.01575354 -360.0914884 271.57003588 -357.8125 263.0625 C-357.47057304 261.66587296 -357.13090124 260.26869268 -356.79296875 258.87109375 C-354.55306822 249.78512344 -351.86899803 240.90772201 -348.8125 232.0625 C-348.4925708 231.13195801 -348.1726416 230.20141602 -347.84301758 229.24267578 C-345.83471034 223.55255635 -343.51618589 218.09097475 -340.96704102 212.62304688 C-339.96649608 210.40403328 -339.09273016 208.19778154 -338.27734375 205.90625 C-336.70547661 201.57341201 -334.57894081 197.60244493 -332.375 193.5625 C-331.60454132 192.13591716 -330.8350057 190.7088354 -330.06640625 189.28125 C-329.68734131 188.57911377 -329.30827637 187.87697754 -328.91772461 187.15356445 C-327.85579149 185.14440669 -326.84833418 183.11632987 -325.8515625 181.07421875 C-323.67764265 176.69411706 -321.1879329 172.53671054 -318.625 168.375 C-318.14305176 167.59044434 -317.66110352 166.80588867 -317.16455078 165.99755859 C-308.00650963 151.2051934 -297.72161497 137.26525663 -286.390625 124.0703125 C-283.32766827 120.49686298 -280.31559769 116.88431735 -277.3203125 113.25390625 C-273.17096804 108.36611913 -268.69432507 103.80523292 -264.1875 99.25 C-263.54184082 98.59136963 -262.89618164 97.93273926 -262.23095703 97.25415039 C-258.93508771 93.95191183 -255.89173995 91.37910541 -251.8125 89.0625 C-250.27264296 87.48411656 -250.27264296 87.48411656 -249 85.75 C-246.29662309 82.4535353 -243.39263958 80.11748606 -239.93359375 77.65234375 C-237.66901315 75.95495092 -235.63685112 74.11180764 -233.5625 72.1875 C-228.37873527 67.51055274 -222.66628506 63.83984809 -216.8125 60.0625 C-214.81125815 58.71016926 -212.81124827 57.35601353 -210.8125 56 C-205.81869667 52.66642301 -200.713214 49.58930353 -195.50390625 46.60546875 C-193.79908287 45.62810266 -192.10691509 44.62802653 -190.43359375 43.59765625 C-187.14019409 41.66873514 -183.73666763 39.99270718 -180.3125 38.3125 C-175.17973997 35.77985341 -170.12754963 33.15961045 -165.125 30.375 C-158.87169816 26.98428676 -152.49242535 24.47788073 -145.8125 22.0625 C-144.30645274 21.49048518 -142.8012971 20.91611924 -141.296875 20.33984375 C-131.56711828 16.63820922 -121.9340862 13.53380024 -111.8125 11.0625 C-110.48136087 10.72295733 -109.15064 10.38177132 -107.8203125 10.0390625 C-103.82543564 9.01418121 -99.82116592 8.03184219 -95.8125 7.0625 C-94.67296875 6.78277344 -93.5334375 6.50304687 -92.359375 6.21484375 C-84.61860203 4.42366489 -76.93297871 3.42351148 -69.03198242 2.70849609 C-64.78844114 2.41771071 -64.78844114 2.41771071 -60.8125 1.0625 C-40.74304331 -2.26917764 -20.19694115 -1.27704225 0 0 Z " fill="#F9FAFA" transform="translate(367.8125,1.9375)"/>
<path d="M0 0 C4.37601905 3.45642084 5.28327525 7.35499227 6.77734375 12.5390625 C7.81038443 15.23266677 7.81038443 15.23266677 10.62890625 16.3359375 C11.41136719 16.55507813 12.19382812 16.77421875 13 17 C13.5775 16.319375 14.155 15.63875 14.75 14.9375 C17 13 17 13 19.0625 12.875 C22.11258258 14.64601569 22.79244972 16.73961426 24 20 C24.32496984 23.63966222 24.24265951 26.28819878 23.0625 29.75 C21.5359227 34.41953058 21.33007781 39.11832298 21 44 C22.15628906 44.39832031 22.15628906 44.39832031 23.3359375 44.8046875 C24.33882812 45.15789062 25.34171875 45.51109375 26.375 45.875 C27.87160156 46.39707031 27.87160156 46.39707031 29.3984375 46.9296875 C32 48 32 48 34 50 C34.76728882 54.38239961 34.90411774 58.9129617 33.11328125 63.046875 C29.384303 68.28760119 24.35955925 72.59031097 19.765625 77.06396484 C13.93601226 82.84813891 9.70161918 89.20354648 7 97 C7 98.32 7 99.64 7 101 C16.12549335 94.59195739 21.42607566 87.5008295 26.1875 77.5 C28.80042463 72.45435244 28.80042463 72.45435244 32 71 C36.41025641 71.41025641 36.41025641 71.41025641 38 73 C38.68972926 78.63278894 37.44553271 81.55921999 34.2890625 86.0078125 C31.42020958 90.44149428 30.71371145 94.54571089 30.1875 99.75 C28.87876168 109.31078303 25.57870852 115.54395164 18.03515625 121.62109375 C12.22320191 125.55894381 6.59574605 125.26546291 0 124 C-0.99 123.67 -1.98 123.34 -3 123 C-2.26951156 131.10849993 -2.26951156 131.10849993 1.4375 138.125 C5.53483236 141.12304807 7.7293272 142.23231618 12.8671875 142.36328125 C15.82100305 141.86015882 17.57551127 140.76023553 20 139 C21.38204476 136.49762205 21.38204476 136.49762205 22.2109375 133.5390625 C22.56542969 132.43715576 22.91992188 131.33524902 23.28515625 130.19995117 C23.64480469 129.02021729 24.00445313 127.8404834 24.375 126.625 C25.1532838 124.17566618 25.93193413 121.72644881 26.7109375 119.27734375 C27.0934668 118.0538623 27.47599609 116.83038086 27.87011719 115.56982422 C29.77387132 109.55498131 31.83021861 103.59173903 33.88037109 97.62548828 C35.29576603 93.42554141 36.43091611 89.41751369 37 85 C40.59391114 86.33488128 43.75490696 87.96022723 47 90 C47.06058594 89.27554688 47.12117188 88.55109375 47.18359375 87.8046875 C47.61483433 82.82883467 48.07047641 77.91319609 49 73 C51 76 51 76 52.5 79.625 C53.60079098 83.06527351 53.60079098 83.06527351 56 84 C58.3329866 84.04022391 60.66706666 84.04320247 63 84 C65.39962209 79.92353355 65.36366693 76.1928216 65.55859375 71.55859375 C66.05900331 68.65798965 66.62486695 67.6940708 69 66 C71.5 66.0625 71.5 66.0625 74 67 C77.85328732 71.2564293 78 75.44111185 78 81 C77.56603815 86.07192915 76.75999681 90.51040625 74.4375 95.0625 C70.09726097 98.51243359 65.11686243 98.72906187 59.734375 99.41796875 C52.03729949 100.44600281 47.30673811 101.14213887 42.125 107.1875 C40.54148406 111.14628986 40.75236864 114.79026692 41 119 C41.57492187 118.84402344 42.14984375 118.68804687 42.7421875 118.52734375 C49.05536216 117.05281334 53.57821317 117.39447303 59.1875 120.8125 C60.7930708 121.87287698 62.39736161 122.93519619 64 124 C65.99295826 125.01396122 67.98979754 126.0206706 70 127 C71 128 71 128 71.375 130.5 C70.92148101 134.73284391 69.36374516 137.21649712 67.09375 140.75390625 C65.78812203 143.43510655 65.57970467 145.05315662 66 148 C66.98581772 149.01398394 67.98553813 150.01467411 69 151 C69.21484375 153.015625 69.21484375 153.015625 68.9375 155.25 C68.86402344 155.97703125 68.79054688 156.7040625 68.71484375 157.453125 C66.44461578 165.54158748 60.74568024 170.66269712 54.89086914 176.39038086 C53.4303592 177.81948726 51.98102284 179.25922071 50.53320312 180.70117188 C40.838725 190.28695227 40.838725 190.28695227 34.5625 190.3125 C33.61503906 190.32925781 32.66757812 190.34601563 31.69140625 190.36328125 C28.50004626 189.93251713 27.23643553 189.30555274 25 187 C23.9453125 184.40625 23.9453125 184.40625 23.125 181.5 C21.61149462 177.07533379 21.61149462 177.07533379 18.375 173.75 C12.91339704 172.53631045 7.83397158 172.43292056 2.82421875 175.203125 C0.78205034 176.70996771 -1.10600967 178.31162031 -3 180 C-3.60714844 180.47824219 -4.21429688 180.95648438 -4.83984375 181.44921875 C-11.89584548 187.08475624 -17.38392247 193.93457461 -19 203 C-19.25104096 207.66327594 -18.86341246 210.86677114 -16 214.625 C-14.27325463 215.99200675 -12.51975689 217.32914621 -10.703125 218.57421875 C-3.4788625 223.69332195 -3.4788625 223.69332195 -2.6875 228 C-2.59120538 232.51709313 -4.5774887 235.29498272 -7 239 C-7.64071142 241.12261455 -7.64071142 241.12261455 -8 243 C-3.87781923 241.55362078 -0.1671792 240.19235532 3.5 237.8125 C7.87614819 235.5462804 10.14719345 235.50649425 15 236 C15.66 236.66 16.32 237.32 17 238 C16.63903174 241.20312709 15.30428186 243.26426015 13.40234375 245.80859375 C12.5825 246.91412598 12.5825 246.91412598 11.74609375 248.04199219 C11.14925781 248.83250977 10.55242187 249.62302734 9.9375 250.4375 C9.32132812 251.26282227 8.70515625 252.08814453 8.0703125 252.93847656 C6.05472505 255.63164877 4.02840729 258.31647262 2 261 C1.29633301 261.93408691 0.59266602 262.86817383 -0.13232422 263.83056641 C-2.25060398 266.64031286 -4.37384936 269.44620565 -6.5 272.25 C-7.15750244 273.11810303 -7.81500488 273.98620605 -8.49243164 274.88061523 C-19.20702927 288.9330171 -19.20702927 288.9330171 -26.3125 293.375 C-26.91658691 293.75454834 -27.52067383 294.13409668 -28.14306641 294.52514648 C-32.60503982 297.27819431 -37.204494 299.68727798 -41.875 302.0625 C-51.65998633 307.04167232 -60.60371463 313.25331615 -69.6640625 319.42578125 C-84.38470399 329.37295551 -99.63748408 332.78331452 -117 335 C-118.00514648 335.13680176 -119.01029297 335.27360352 -120.04589844 335.41455078 C-183.47172996 343.92570245 -239.19583871 327.54437341 -294 295 C-295.36125 294.25556641 -295.36125 294.25556641 -296.75 293.49609375 C-299.14029883 291.90671102 -300.19730096 290.64955243 -301.625 288.1875 C-302.03234375 287.48753906 -302.4396875 286.78757812 -302.859375 286.06640625 C-303.23578125 285.38449219 -303.6121875 284.70257812 -304 284 C-304.61875 282.88625 -305.2375 281.7725 -305.875 280.625 C-306.24625 279.75875 -306.6175 278.8925 -307 278 C-306.67 277.34 -306.34 276.68 -306 276 C-305.05898438 276.34933594 -304.11796875 276.69867187 -303.1484375 277.05859375 C-301.89072526 277.51850345 -300.63290707 277.97812347 -299.375 278.4375 C-297.53035156 279.11619141 -297.53035156 279.11619141 -295.6484375 279.80859375 C-290.34191466 281.54145185 -285.50337263 282.13936354 -279.9375 282.125 C-278.43509766 282.12886719 -278.43509766 282.12886719 -276.90234375 282.1328125 C-274.16157118 282.00739357 -271.66862381 281.61696624 -269 281 C-269.8604139 276.66770285 -269.8604139 276.66770285 -272 273 C-271.90910151 270.80025658 -271.7382303 268.61510111 -271.546875 266.421875 C-272.24413872 262.69512063 -274.09911236 261.3672158 -277 259 C-279.52669421 257.60274018 -282.13421336 256.50975276 -284.8125 255.4375 C-286.25332105 254.83765655 -287.69343653 254.2361153 -289.1328125 253.6328125 C-289.81118164 253.35083008 -290.48955078 253.06884766 -291.18847656 252.77832031 C-293.24954889 251.89278142 -295.21831562 250.88583226 -297.1875 249.8125 C-304.72046353 245.95535894 -313.12763054 244.1231525 -321.375 242.5 C-329.42413683 240.83835799 -334.45005692 238.22676541 -340 232 C-340.69996094 231.23042969 -341.39992188 230.46085938 -342.12109375 229.66796875 C-343.23677734 228.37826172 -343.23677734 228.37826172 -344.375 227.0625 C-345.08398438 226.24910156 -345.79296875 225.43570313 -346.5234375 224.59765625 C-348 222 -348 222 -347.7890625 218.74609375 C-347 216 -347 216 -346 215 C-345.45239095 211.62406283 -345.45239095 211.62406283 -346 208 C-348.36363449 205.70103197 -348.36363449 205.70103197 -351.5625 204.0625 C-365.47034739 195.51259382 -376.31710846 178.04332414 -381.0703125 162.5 C-382.74227802 155.38636312 -383.10927554 147.9951798 -383.76757812 140.734375 C-383.88423828 139.57164062 -384.00089844 138.40890625 -384.12109375 137.2109375 C-384.2183374 136.16212402 -384.31558105 135.11331055 -384.41577148 134.03271484 C-384.86436742 130.8938519 -384.86436742 130.8938519 -386.61743164 127.98681641 C-388.30004415 124.3518029 -388.14931222 122.79675638 -387 119 C-385.55712891 116.41040039 -385.55712891 116.41040039 -383.7265625 113.84765625 C-383.0665625 112.90599609 -382.4065625 111.96433594 -381.7265625 110.99414062 C-381.03304687 110.02669922 -380.33953125 109.05925781 -379.625 108.0625 C-372.28732163 98.72497374 -372.28732163 98.72497374 -368.890625 87.671875 C-369.4462157 84.70067256 -370.04296303 81.87111092 -371 79 C-371.25345712 75.51496464 -371.32376202 72.84178126 -370.0625 69.5625 C-367.17305945 67.37352989 -365.0280539 67.94582184 -361.5 68.12109375 C-358.68602978 67.98479207 -356.97159858 67.26534071 -354.4375 66.0625 C-349.16663179 63.68853416 -344.23119273 63.47411323 -338.53295898 63.41625977 C-334.26269782 63.31952923 -332.2455145 62.70459542 -329 60 C-320.97261575 58.25491647 -314.06761813 61.54953549 -307 65 C-306.34644531 65.3000293 -305.69289063 65.60005859 -305.01953125 65.90917969 C-302.93502869 66.86832463 -300.87311551 67.86567886 -298.8125 68.875 C-297.82213745 69.32939453 -297.82213745 69.32939453 -296.81176758 69.79296875 C-294.95703125 70.7421875 -294.95703125 70.7421875 -292 73 C-290.50308 77.89182159 -291.04739696 81.26232197 -292.75 86 C-296.53153633 97.37068854 -298.30350454 109.1644493 -300 121 C-298.84371094 121.17015625 -298.84371094 121.17015625 -297.6640625 121.34375 C-293.76776505 122.30354175 -292.00173166 124.7030302 -290 128 C-287.96080283 132.58600564 -286.95311247 137.18604897 -286.1875 142.125 C-285.221475 147.19267213 -283.30758133 150.9953891 -279 154 C-275.24606681 154.58661468 -275.24606681 154.58661468 -272 154 C-272.9997526 150.1827628 -273.89578311 148.11166095 -276.625 145.1875 C-279.2516112 141.66231128 -279.96961262 139.99700208 -279.765625 135.69140625 C-278.53636185 131.37016996 -275.99791954 127.82398717 -273.37841797 124.22460938 C-269.42602397 118.70047526 -267.29636852 113.05221104 -268.375 106.125 C-269.04394471 101.05676008 -269.0977659 96.10555273 -269 91 C-267.3671875 89.828125 -267.3671875 89.828125 -265 89 C-253.48961068 93.13193463 -237.39317004 103.43737123 -231 114 C-229.65552402 117.02507096 -228.4197993 120.04764009 -227.27636719 123.15234375 C-225.63251541 127.59756543 -223.64175604 131.5760516 -221.25 135.6875 C-218.29273519 140.93841683 -217.30642733 145.29858136 -216.56640625 151.21875 C-215.0356699 158.73519331 -209.3017387 163.84374021 -203.9609375 168.94921875 C-200.77421233 172.28194926 -198.41908328 176.09402795 -196 180 C-195.34 180.99 -194.68 181.98 -194 183 C-193.51116719 186.55580605 -193.16678723 190.08842491 -192.87695312 193.6640625 C-192.44234962 198.14321934 -191.8522467 201.34257361 -189 205 C-181.7867822 209.80881187 -173.40505704 210.65355882 -165 212 C-164.78472656 211.22269531 -164.56945312 210.44539062 -164.34765625 209.64453125 C-162.52282939 204.7095647 -160.00366843 200.2711171 -157.4375 195.6875 C-156.93025391 194.76904297 -156.42300781 193.85058594 -155.90039062 192.90429688 C-152.15299263 186.15299263 -152.15299263 186.15299263 -151 185 C-148.3125 184.5 -148.3125 184.5 -145 185 C-137.93028218 191.16720065 -132.41697216 201.59996671 -131.41796875 211.02734375 C-131.12326785 221.95310681 -133.43292958 227.28896212 -140.625 235.1875 C-141.40101563 235.98542969 -142.17703125 236.78335938 -142.9765625 237.60546875 C-145.01166643 240.01380602 -146.01745026 242.02593815 -147 245 C-137.28471546 250.63486503 -126.11389257 252.37541761 -115 253 C-114.16855469 253.06445312 -113.33710938 253.12890625 -112.48046875 253.1953125 C-104.99975215 253.54004598 -99.17972621 251.78226043 -93.5 246.8125 C-90.969747 242.06827563 -90.53444601 237.37949816 -91.5625 232.125 C-93.58400356 229.13669039 -95.68810196 228.39971672 -99 227 C-102.8099643 226.35492668 -106.59619932 225.99674206 -110.44140625 225.625 C-114.02512287 224.99558764 -116.16582473 224.26298831 -119 222 C-119 218.29742977 -118.2639476 217.94176163 -115.75 215.375 C-110.08928339 209.11841848 -107.28117249 202.4351746 -107 194 C-108.02253843 190.08026933 -108.56034798 189.29310134 -112 187 C-110.06905419 180.24168965 -107.05769971 174.80367191 -101 171 C-97.5 170 -97.5 170 -94 170 C-91.3125 171.875 -91.3125 171.875 -89 174 C-86.81785432 174.77833534 -86.81785432 174.77833534 -85 175 C-84.896875 173.88625 -84.79375 172.7725 -84.6875 171.625 C-84.460625 170.42875 -84.23375 169.2325 -84 168 C-79.27354383 164.84902922 -74.52499639 165.20883107 -69 166 C-65.98125017 167.34166659 -63.3244076 168.86828122 -60.5703125 170.6875 C-57.46349506 172.27395997 -55.44754363 172.32833749 -52 172 C-45.64302557 169.14584821 -43.5658525 164.12328944 -41 158 C-40.67 157.01 -40.34 156.02 -40 155 C-40.92619141 155.32484375 -40.92619141 155.32484375 -41.87109375 155.65625 C-47.55558695 157.52512448 -52.99193252 158.94605562 -59 158 C-59.99 157.34 -60.98 156.68 -62 156 C-67.476161 155.42956656 -72.01336014 156.67164811 -77.25390625 158.24609375 C-83.65796081 160.00424813 -89.83781382 160.21300106 -96.4375 160.25 C-97.81131836 160.2809375 -97.81131836 160.2809375 -99.21289062 160.3125 C-105.75026506 160.35004415 -110.92612165 159.87272476 -115.91015625 155.21484375 C-119.29605447 148.33382478 -117.29496269 139.04016801 -115.25 132 C-111.5640648 121.2820324 -111.5640648 121.2820324 -107 119 C-104.9765625 118.76171875 -104.9765625 118.76171875 -102.625 118.6875 C-101.46871094 118.63142578 -101.46871094 118.63142578 -100.2890625 118.57421875 C-97.02252942 119.1818162 -95.90654189 120.30530339 -94 123 C-93.86328125 126.12890625 -93.86328125 126.12890625 -94.3125 129.5625 C-94.97698803 134.35441766 -94.97698803 134.35441766 -94 139 C-89.32289462 138.50083524 -86.52420409 137.34684381 -82.75 134.5625 C-81.47382812 133.63630859 -81.47382812 133.63630859 -80.171875 132.69140625 C-77.04084671 130.40546754 -77.04084671 130.40546754 -75.56103516 127.00390625 C-75.47128418 126.19824219 -75.3815332 125.39257812 -75.2890625 124.5625 C-75.12712402 123.22687012 -75.12712402 123.22687012 -74.96191406 121.86425781 C-74.85073242 120.91905273 -74.73955078 119.97384766 -74.625 119 C-72.83366095 105.44872517 -69.36122436 95.02578811 -58.5625 85.9375 C-57.716875 85.298125 -56.87125 84.65875 -56 84 C-56.33144981 81.51412643 -56.61261091 80.32540684 -58.5625 78.6875 C-62.27858274 77.6393741 -65.38561752 77.79307723 -69 79 C-72.23075219 81.07056798 -75.0816007 83.51647887 -78 86 C-85.78802574 91.93516855 -91.33206873 92.45877915 -101 92 C-105.62555964 91.36267147 -109.09164478 90.60557014 -113 88 C-113.64670659 82.93413174 -113.64670659 82.93413174 -111.875 80.375 C-110 79 -110 79 -107 77.1875 C-102.5740448 73.960241 -101.27353036 70.63092479 -100.375 65.2734375 C-100.12450359 62.66931854 -99.87450554 60.06515159 -99.625 57.4609375 C-99.0064845 54.03590794 -98.33848122 52.5037 -96 50 C-95.27554687 50.25136719 -94.55109375 50.50273437 -93.8046875 50.76171875 C-87.63338579 52.81875077 -87.63338579 52.81875077 -81.375 51.8125 C-78.92642206 50.219272 -78.92642206 50.219272 -78 48 C-77.93049459 46.45976004 -77.91547643 44.91665012 -77.9375 43.375 C-77.95103516 42.14910156 -77.95103516 42.14910156 -77.96484375 40.8984375 C-77.97644531 40.27195312 -77.98804688 39.64546875 -78 39 C-79.32 38.34 -80.64 37.68 -82 37 C-82.45552895 33.08245101 -82.38059386 31.49592533 -79.9375 28.3125 C-73.23981983 23.03985816 -67.38433412 22.08578279 -59 23 C-54.91819485 24.04558556 -51.51895777 25.65402815 -48 28 C-47.34 27.34 -46.68 26.68 -46 26 C-42.73498866 26.01781725 -39.51652388 26.26325699 -36.26171875 26.515625 C-32.78556608 26.28530565 -32.78556608 26.28530565 -30.328125 23.42578125 C-27.51887849 19.56128767 -25.3121567 15.36115568 -23.12695312 11.12304688 C-20.2504002 5.81740481 -16.85351802 2.69668639 -11.6875 -0.375 C-7.73859135 -1.29335085 -3.88438551 -1.20909316 0 0 Z " fill="#A7A7A7" transform="translate(490,331)"/>
<path d="M0 0 C2.68195126 -0.39943955 4.38458337 -0.57519501 7 0 C8.765625 1.48828125 8.765625 1.48828125 10.6875 3.375 C15.48176978 7.48556522 20.16436998 7.98748843 26.25 8.5625 C27.12615967 8.64741699 28.00231934 8.73233398 28.9050293 8.81982422 C33.52769268 9.15377921 36.75938538 9.08935392 41 7 C45.45122667 6.19911641 48.19389624 6.46259749 52 9 C54.73490373 13.1023556 54.5493667 15.13418066 54 20 C53.01 21.485 53.01 21.485 52 23 C52.42152344 23.39832031 52.84304687 23.79664063 53.27734375 24.20703125 C54.09912109 25.00173828 54.09912109 25.00173828 54.9375 25.8125 C55.48277344 26.33457031 56.02804688 26.85664063 56.58984375 27.39453125 C59.23564128 30.40678274 59.38149459 33.8584704 59.3671875 37.75 C58.79372831 41.26396268 56.95745117 43.88148077 55.11328125 46.87890625 C53.65058975 49.66571848 53.603799 51.90963222 54 55 C55.80252869 55.70194993 55.80252869 55.70194993 58 56 C58.5775 55.690625 59.155 55.38125 59.75 55.0625 C63.13875115 53.4622564 66.3630642 53.44149432 70 54 C72.07175195 54.8662947 73.97180301 55.89423659 75.9296875 56.9921875 C78.15487213 58.07539058 80.13483372 58.54738425 82.5625 59 C88.52465283 60.20064007 93.01519865 62.37490117 96.8125 67.3125 C101.06155772 73.9097212 101.27580121 80.3848222 101 88 C98.58524874 87.06093007 96.26074913 86.14667138 94 84.875 C91.46312567 83.76511748 89.74222564 83.64843261 87 84 C84.15341794 86.26213888 84.01077691 86.92815393 83.4375 90.75 C83.55180936 95.41382184 85.18125185 99.27516677 87 103.5 C89.49567368 109.30882106 90.92078243 113.65683215 90 120 C88.36673785 123.75650294 86.43486552 125.81417649 83 128 C81.98486328 128.34611328 81.98486328 128.34611328 80.94921875 128.69921875 C78.7025428 129.89718974 78.7025428 129.89718974 78.171875 132.8203125 C78.03265625 133.91085937 77.8934375 135.00140625 77.75 136.125 C77.60046875 137.22070312 77.4509375 138.31640625 77.296875 139.4453125 C77.14992188 140.70988281 77.14992188 140.70988281 77 142 C72.62780122 143.06511827 70.20981134 142.66434402 66 141 C65.5153125 141.60328125 65.030625 142.2065625 64.53125 142.828125 C58.9652616 149.46449578 54.22366091 153.5827496 45.5 154.75 C44.345 154.8325 43.19 154.915 42 155 C42.0825 156.051875 42.165 157.10375 42.25 158.1875 C41.96269651 162.56887825 41.05154419 163.94845581 38 167 C35.04335481 168.4783226 32.25770263 168.06032783 29 168 C28.01 164.535 28.01 164.535 27 161 C26.34 161.33 25.68 161.66 25 162 C22.3276379 162.13415472 19.67749512 162.04318541 17 162 C17.495 159.03 17.495 159.03 18 156 C16.35 156.33 14.7 156.66 13 157 C13 156.34 13 155.68 13 155 C10.89788303 155.96663749 10.89788303 155.96663749 9 158 C7.77872671 162.72225672 7.67193762 165.61482198 9.46484375 170.12890625 C11.24610847 175.23320705 11.53648752 179.936508 11.5 185.3125 C11.49790527 186.23023193 11.49581055 187.14796387 11.49365234 188.09350586 C11.31781888 195.69662556 9.7715024 201.33701243 6 208 C5.32883266 209.33107349 4.66048675 210.66359457 4 212 C5.65 212.66 7.3 213.32 9 214 C9.5090986 224.35167162 7.50421844 233.73837435 1 242 C0.58878906 242.5671875 0.17757812 243.134375 -0.24609375 243.71875 C-4.87740044 248.83954438 -11.06922216 249.17657363 -17.60229492 249.88793945 C-22.37849576 250.44706057 -22.37849576 250.44706057 -26.44140625 252.9140625 C-28.09218126 255.06906308 -28.09218126 255.06906308 -29.75 257.75 C-32.17410284 260.17410284 -32.73744658 260.43978761 -36 260.6875 C-38.12109375 260.57421875 -38.12109375 260.57421875 -40 260 C-41.36176581 258.01924973 -42.69593116 256.01920337 -44 254 C-47.83710078 253.5287771 -50.3435672 253.78118907 -54 255 C-58.55475835 255.52921954 -62.02810444 255.47641939 -66.1875 253.4375 C-72.9560611 247.57141372 -77.13618718 241.86044273 -78.28225708 232.75830078 C-78.40442625 230.46999887 -78.44106531 228.19774476 -78.44140625 225.90625 C-78.45461411 225.07468384 -78.46782196 224.24311768 -78.48143005 223.38635254 C-78.52190972 220.75753356 -78.54386965 218.12905751 -78.5625 215.5 C-78.58645234 212.87104922 -78.61482052 210.24241327 -78.65428162 207.61364746 C-78.67823843 205.98753825 -78.69342008 204.36126488 -78.69789124 202.73498535 C-78.78677591 196.18133319 -79.46987592 189.82484445 -82.625 184 C-84.51629161 179.87354557 -85.19437338 176.44276467 -84 172 C-82.23100377 169.79858247 -80.27623352 168.03707161 -78.16796875 166.16015625 C-70.25129037 158.27200644 -67.15481656 146.77828793 -66 136 C-64.46423665 134.46423665 -62.75339654 134.62470959 -60.625 134.3125 C-53.55371802 132.9631736 -47.00091484 129.72082945 -41.65625 124.875 C-38.3134049 122.51534464 -35.27827075 122.19041533 -31.3125 121.875 C-26.17873224 121.65307081 -26.17873224 121.65307081 -22 119 C-22.66 118.01 -23.32 117.02 -24 116 C-23.64111965 113.03923709 -23.15341979 112.15341979 -21 110 C-21.31865778 106.70720291 -22.54515351 105.13464912 -25 103 C-23.88408263 100.39619281 -22.93328633 98.93900464 -20.8125 97 C-19.9153125 96.01 -19.9153125 96.01 -19 95 C-19.17753613 91.98188578 -19.83735215 91.16264785 -22 89 C-26.13830989 89.30096799 -28.51847024 89.67898016 -32 92 C-33.32 92 -34.64 92 -36 92 C-35.62880325 85.56592292 -35.62880325 85.56592292 -32.5 82.75 C-31.675 82.1725 -30.85 81.595 -30 81 C-29.505 79.515 -29.505 79.515 -29 78 C-34.62538451 78.92846152 -39.18632157 79.79088105 -44 83 C-44.99 83 -45.98 83 -47 83 C-47.9659657 80.39189261 -48.02770914 79.10579853 -47.3125 76.375 C-46 74 -46 74 -42 72 C-42 68.04 -42 64.08 -42 60 C-39 59 -39 59 -35.75 59.125 C-27.65178423 58.85505947 -21.83054306 54.2941331 -16 49 C-12.82894734 44.63980259 -11.88657729 40.77087381 -11.46484375 35.45703125 C-11.37783203 34.38388672 -11.29082031 33.31074219 -11.20117188 32.20507812 C-11.11416016 31.08552734 -11.02714844 29.96597656 -10.9375 28.8125 C-10.84662109 27.68134766 -10.75574219 26.55019531 -10.66210938 25.38476562 C-10.43806386 22.59009264 -10.21749856 19.79518889 -10 17 C-8.16796875 16.40625 -8.16796875 16.40625 -6 16 C-3.3125 17.5 -3.3125 17.5 -1 20 C-0.1875 23.75 -0.1875 23.75 0 27 C1.60746056 26.57476184 3.21089836 26.13429874 4.8125 25.6875 C5.70582031 25.44386719 6.59914063 25.20023438 7.51953125 24.94921875 C10.05247738 23.9799181 11.2716496 23.04990396 13 21 C12.48050781 20.61070312 11.96101563 20.22140625 11.42578125 19.8203125 C5.8781166 15.36987542 2.35609728 10.76245228 0 4 C0 2.68 0 1.36 0 0 Z " fill="#A7A7A7" transform="translate(197,124)"/>
<path d="M0 0 C2.1875 -0.4375 2.1875 -0.4375 5 0 C6.49047408 1.65559949 7.62545116 3.37573579 8.7890625 5.2734375 C10.0526066 7.29701685 10.0526066 7.29701685 13 9 C15.13203987 8.87426326 15.13203987 8.87426326 17.375 8.375 C21.68450326 7.77915228 21.68450326 7.77915228 24.5 9.75 C25.7375 10.86375 25.7375 10.86375 27 12 C28.5019771 12.55407474 30.02604043 13.05030452 31.5625 13.5 C35.3100292 14.63050464 37.50833806 15.8583393 40 19 C40.99 18.34 41.98 17.68 43 17 C46.4375 16.625 46.4375 16.625 50 17 C53.25861674 19.69271192 54.96618774 22.55070528 56.8125 26.3125 C58.78016243 30.10225799 60.60173381 32.81557958 63.8125 35.625 C66.53373074 38.14622938 67.61472136 39.94643416 68.25 43.625 C68.35918405 47.02694502 68.16258928 47.77971775 66.0625 50.625 C65.051875 51.40875 64.04125 52.1925 63 53 C57.41120991 57.64996172 52.5581385 61.71511913 50 68.75 C50 79.55874344 58.57457021 90.07496092 64 99 C74.37662994 98.11570668 74.37662994 98.11570668 82.609375 92.16796875 C84.65660859 89.16037558 85.8733504 86.55265282 86.6875 83 C85.80316159 79.14106874 83.81457323 77.0549026 81.3359375 74.03515625 C79.2629871 70.87724058 79.54081959 68.67344326 80 65 C82.31 65 84.62 65 87 65 C87.10957031 64.33097656 87.21914063 63.66195312 87.33203125 62.97265625 C88.81849632 53.96927026 90.40325947 44.98432671 92 36 C96.50633781 35.63462126 96.50633781 35.63462126 98.68359375 37.24609375 C100.08851514 39.11793264 101.08195676 40.93865129 102.0625 43.0625 C103.22899298 45.57818969 104.01051026 47.01051026 106 49 C108.2701851 49.23628446 108.2701851 49.23628446 110.8125 49.25 C114.74232981 49.60260412 115.8548024 49.88964982 119.125 52.375 C122.69887706 57.59739077 121.37645002 64.47282386 120.49609375 70.3828125 C119.1865993 79.93077991 118.60191107 88.73417632 124 97 C125.051875 96.01 125.051875 96.01 126.125 95 C129.52460766 92.63505554 130.94587851 92.32431309 135 93 C140.53388288 96.47476367 142.85025677 101.12157002 144.8125 107.1875 C146.53746844 112.16775908 148.85326103 116.27616522 151.828125 120.61328125 C153.86038664 124.75232079 153.28904926 127.98951223 152.046875 132.33203125 C151.61890625 133.48058594 151.1909375 134.62914062 150.75 135.8125 C150.29496094 137.03453125 149.83992187 138.2565625 149.37109375 139.515625 C147.95572255 143.11252276 146.4641564 146.65145369 144.84375 150.16015625 C144.11441999 151.75050086 143.45643947 153.37320555 142.8125 155 C142 157 142 157 141 158 C139.54775975 158.30180302 138.08758564 158.56565984 136.625 158.8125 C132.68706891 159.55508129 129.11310751 160.62155353 125.375 162.0625 C119.52772261 164.25625992 114.73807224 166.01410083 108.625 163.75 C106 162 106 162 104 159 C104.06219384 157.14266563 104.19653302 155.28728609 104.375 153.4375 C104.52615528 146.85826762 102.29115197 143.94460209 97.98046875 139.19140625 C94.86911232 135.74866275 93 132.65795575 93 128 C79.23615241 132.44084061 68.13945714 137.7908143 60 150 C59.01 150 58.02 150 57 150 C55.49780273 148.39526367 55.49780273 148.39526367 53.93359375 146.16796875 C53.36576172 145.36939453 52.79792969 144.57082031 52.21289062 143.74804688 C51.62701172 142.90306641 51.04113281 142.05808594 50.4375 141.1875 C49.55288086 139.93743164 49.55288086 139.93743164 48.65039062 138.66210938 C41.3561958 128.33074128 41.3561958 128.33074128 42 122 C42.680625 120.989375 43.36125 119.97875 44.0625 118.9375 C46.20200529 116.18070159 46.20200529 116.18070159 46.3125 113.125 C44.55738196 108.94614752 41.79416086 107.05669607 38.3359375 104.21484375 C35.88954689 101.89527272 34.52753225 99.76855443 32.9375 96.8125 C28.98108566 89.70621308 23.30542417 87.32587933 15.88671875 84.74609375 C12.94459317 83.5826445 10.52667791 81.88031844 8 80 C7.48179687 79.61585938 6.96359375 79.23171875 6.4296875 78.8359375 C4.27964474 76.07495362 3.97537068 72.99607784 3.4375 69.625 C3.31818115 68.91327637 3.1988623 68.20155273 3.07592773 67.46826172 C2.832686 66.01076378 2.5935049 64.55258232 2.35839844 63.09375 C2.03225854 61.18845318 1.63326725 59.29598925 1.2265625 57.40625 C-0.15144859 50.597254 -0.10986874 46.34132529 3.15234375 40.12109375 C4.21397955 37.4645581 4.00495801 36.65905158 3 34 C2.51144531 32.98035156 2.02289063 31.96070313 1.51953125 30.91015625 C-0.52654024 26.23893643 -0.87648564 21.47470657 -1.3125 16.4375 C-1.41111328 15.51775391 -1.50972656 14.59800781 -1.61132812 13.65039062 C-2.08150867 8.58045934 -2.11985377 4.77165588 0 0 Z " fill="#A7A7A7" transform="translate(220,304)"/>
<path d="M0 0 C0.87650208 -0.00067474 1.75300415 -0.00134949 2.65606689 -0.00204468 C34.25320202 0.03630919 64.4513615 4.88608781 94.875 13.25 C96.02453659 13.56386154 96.02453659 13.56386154 97.19729614 13.88406372 C106.43616805 16.42399265 115.23018166 19.34482177 124 23.25 C125.93140633 24.0646023 127.86371042 24.87707909 129.796875 25.6875 C164.79895374 40.65126823 196.50865108 60.4571818 224.671875 86.140625 C226.73153033 88.00675567 228.82388895 89.82069788 230.9375 91.625 C238.90775878 98.57880877 246.11367191 106.23790367 253 114.25 C253.54229248 114.880271 254.08458496 115.51054199 254.64331055 116.15991211 C267.97239624 131.77617758 279.8881588 148.37400875 290 166.25 C290.45052734 167.03503906 290.90105469 167.82007813 291.36523438 168.62890625 C328.54725289 233.66020699 343.04658728 310.08520838 332 384.25 C331.79914795 385.69101074 331.79914795 385.69101074 331.59423828 387.16113281 C321.51312047 458.40103198 286.16748605 524.17118387 235 574.25 C235 571.25 235 571.25 236.87109375 569.15625 C237.71800781 568.3621875 238.56492187 567.568125 239.4375 566.75 C244.76550454 561.57186901 249.414484 556.08683125 254 550.25 C254.75667969 549.31027344 255.51335937 548.37054687 256.29296875 547.40234375 C277.10697297 521.08773809 294.97159277 490.99201825 306 459.25 C307.40916905 455.35938436 308.87625528 451.53132343 310.54296875 447.7421875 C312.09809111 444.01489692 313.26183979 440.26587222 314.3125 436.375 C314.52124756 435.60671875 314.72999512 434.8384375 314.94506836 434.046875 C315.64143714 431.45078354 316.32289121 428.85117965 317 426.25 C317.3702832 424.83605957 317.3702832 424.83605957 317.74804688 423.39355469 C324.85500966 395.95127471 328.23360294 369.04882764 328.25 340.75 C328.25067474 339.70431854 328.25134949 338.65863708 328.25204468 337.58126831 C328.22733225 313.43261063 326.04555747 290.4098385 320.59228516 266.84082031 C320.06674078 264.54194276 319.57722976 262.24006497 319.10546875 259.9296875 C314.5468767 238.21119611 306.39794278 217.28973093 297 197.25 C296.59136719 196.37762695 296.18273437 195.50525391 295.76171875 194.60644531 C284.48504872 170.79119218 270.16711643 148.2681923 253 128.25 C251.84371094 126.81914062 251.84371094 126.81914062 250.6640625 125.359375 C243.75644842 116.90248737 236.13405186 109.1682751 228.4375 101.4375 C227.90697021 100.90179382 227.37644043 100.36608765 226.82983398 99.81414795 C219.89215549 92.82319742 212.76673119 86.3304984 205 80.25 C204.27031006 79.67161377 203.54062012 79.09322754 202.78881836 78.49731445 C181.72295797 61.90247328 159.34435707 48.32189587 134.94726562 37.15917969 C132.44650442 35.99157253 130.00535853 34.7211677 127.5625 33.4375 C123.26606796 31.25565973 118.8499073 29.7577129 114.25 28.33984375 C111.58020786 27.4445649 109.03544133 26.45179212 106.4375 25.375 C87.52808051 17.73891073 67.07643452 13.45626438 47 10.25 C46.03094727 10.08628906 45.06189453 9.92257812 44.06347656 9.75390625 C27.41732016 7.0402856 10.76007035 6.96469255 -6.0625 6.9375 C-7.15996552 6.93382416 -8.25743103 6.93014832 -9.38815308 6.92636108 C-26.73411931 6.89605099 -43.47524724 8.04166822 -60.5625 11.125 C-61.53880371 11.3000708 -62.51510742 11.4751416 -63.52099609 11.65551758 C-77.30998498 14.17546492 -90.60347498 17.63406393 -104 21.75 C-105.86229248 22.31980591 -105.86229248 22.31980591 -107.76220703 22.90112305 C-113.73660483 24.76998961 -119.50150981 26.76108194 -125.17529297 29.41015625 C-127.4215887 30.44404136 -129.71361956 31.23141809 -132.0625 32 C-138.895743 34.4478699 -145.26882586 37.73372249 -151.70019531 41.06542969 C-154.12259343 42.31314473 -156.55670122 43.53586218 -158.9921875 44.7578125 C-169.33549962 50.0025542 -179.16144053 55.69854859 -188.78027344 62.1862793 C-189.56821289 62.71648682 -190.35615234 63.24669434 -191.16796875 63.79296875 C-191.86172607 64.26758545 -192.5554834 64.74220215 -193.27026367 65.23120117 C-195 66.25 -195 66.25 -197 66.25 C-196.34 68.89 -195.68 71.53 -195 74.25 C-194.401875 73.734375 -193.80375 73.21875 -193.1875 72.6875 C-188.32248062 70.49347165 -184.12100158 70.98200918 -179 72.25 C-172.96481263 75.15311744 -168.03436037 79.18127927 -165 85.25 C-164.34954682 89.21858776 -164.19693027 92.78399351 -166.1640625 96.375 C-167.70846328 98.40252102 -169.32040293 100.33328335 -171 102.25 C-174.1493261 106.04796779 -176.14023152 109.02942773 -177.0625 113.9375 C-177.59656591 116.74611449 -177.96473052 118.19639038 -179.5625 120.625 C-181.90500148 122.18666765 -183.51970847 122.74706929 -186.1875 123.5 C-194.14336259 125.90769526 -199.66833903 132.46457831 -204.7109375 138.8046875 C-206.92865348 141.29121754 -208.82912115 142.21512676 -212.0625 142.875 C-217.99260578 141.93371337 -221.72796505 138.32561955 -226 134.25 C-228.20208315 129.84583369 -227.54189553 124.03227359 -227.75 119.1875 C-227.81832031 117.98416016 -227.88664062 116.78082031 -227.95703125 115.54101562 C-228.31456894 107.14804752 -227.96568168 99.78995032 -222.6875 92.9375 C-219.96397021 90.21397021 -217.33202113 88.17516776 -214 86.25 C-213.34 86.25 -212.68 86.25 -212 86.25 C-212 85.26 -212 84.27 -212 83.25 C-212.66 83.25 -213.32 83.25 -214 83.25 C-214.33 82.59 -214.66 81.93 -215 81.25 C-217.31 83.23 -219.62 85.21 -222 87.25 C-222.66 86.92 -223.32 86.59 -224 86.25 C-217.63615775 79.43159759 -210.41273012 73.86012177 -203 68.25 C-202.34128906 67.74694336 -201.68257812 67.24388672 -201.00390625 66.72558594 C-181.86480233 52.18758138 -161.28450465 40.29131609 -139.421875 30.35449219 C-137.29213441 29.38322742 -135.17480982 28.39126293 -133.0625 27.3828125 C-127.34422651 24.67202719 -121.61972494 22.26209994 -115.6328125 20.20703125 C-112.88163048 19.24530105 -112.88163048 19.24530105 -109.83984375 17.81640625 C-105.18886407 15.80169326 -100.34059139 14.61671887 -95.4375 13.375 C-94.42445801 13.1167041 -93.41141602 12.8584082 -92.36767578 12.59228516 C-89.24716951 11.80307467 -86.12385075 11.02585184 -83 10.25 C-82.09233887 10.01990234 -81.18467773 9.78980469 -80.24951172 9.55273438 C-53.92401097 2.92123168 -27.1066197 0.01890012 0 0 Z " fill="#A8A8A8" transform="translate(343,4.75)"/>
<path d="M0 0 C4.53264928 0.07173977 8.06180945 1.06665953 12.2734375 2.63671875 C17.68917771 4.3279156 22.28604273 3.48153464 27.4375 1.3125 C31.48064131 0.80710734 32.92241096 0.95417719 36.3125 3.3125 C37.01375 3.9725 37.715 4.6325 38.4375 5.3125 C37.7775 7.2925 37.1175 9.2725 36.4375 11.3125 C38.43704746 11.35504356 40.43791636 11.35330783 42.4375 11.3125 C42.7675 10.9825 43.0975 10.6525 43.4375 10.3125 C46.6875 9.875 46.6875 9.875 50.4375 10.3125 C53.60090753 12.93745519 55.13009179 14.48726374 55.8125 18.5390625 C56.01947683 26.27482155 53.57272965 30.68539206 48.4296875 36.30859375 C44.21466747 40.54840802 40.72977842 43.96865824 34.6875 44.875 C31.2053868 44.27232656 29.93483342 43.74148535 27.4375 41.3125 C26.72922881 38.53455011 26.49801803 35.85448247 26.22265625 33.00390625 C25.14995152 29.32682386 23.70880724 28.24288625 20.4375 26.3125 C17.26107185 25.75734484 17.26107185 25.75734484 13.9375 25.9375 C12.28234375 25.95683594 12.28234375 25.95683594 10.59375 25.9765625 C7.51064343 26.30471493 5.23291047 27.00867049 2.4375 28.3125 C2.01918596 31.60249282 2.01918596 31.60249282 2.4375 35.3125 C4.75023442 38.2096941 4.75023442 38.2096941 7.4375 40.3125 C9.76318497 42.63818497 9.12525836 47.02978136 9.12890625 50.09765625 C8.0378074 55.17095768 4.86417389 57.28765135 0.8203125 60.27734375 C-1.7905663 62.50729105 -2.69019017 64.01953039 -3.5625 67.3125 C-2.91441436 68.65496312 -2.24427416 69.98682801 -1.5625 71.3125 C-1.37581276 74.00390765 -1.47241094 76.60982806 -1.5625 79.3125 C-2.8825 79.6425 -4.2025 79.9725 -5.5625 80.3125 C-5.85125 81.446875 -6.14 82.58125 -6.4375 83.75 C-6.994375 85.5134375 -6.994375 85.5134375 -7.5625 87.3125 C-11.00272935 89.03261467 -14.80061157 88.83068499 -18.5625 88.3125 C-20.875 86.3125 -20.875 86.3125 -22.5625 84.3125 C-23.8825 84.3125 -25.2025 84.3125 -26.5625 84.3125 C-26.789375 85.21355469 -27.01625 86.11460938 -27.25 87.04296875 C-28.77618075 90.84479402 -30.31363998 92.19307716 -33.5625 94.625 C-34.449375 95.30175781 -35.33625 95.97851562 -36.25 96.67578125 C-40.86047836 99.93894076 -45.01302782 100.18500908 -50.5625 99.3125 C-52.8828125 97.97265625 -52.8828125 97.97265625 -55.1875 96.3125 C-60.46928429 92.70707149 -64.95288369 92.83107624 -71.11767578 93.18359375 C-76.31503981 93.47747346 -76.31503981 93.47747346 -79.5625 91.3125 C-80.75 88.1875 -80.75 88.1875 -81.5625 85.3125 C-85.5225 85.3125 -89.4825 85.3125 -93.5625 85.3125 C-95.32415135 81.7891973 -95.03643428 78.05772812 -94.01513672 74.296875 C-93.23739228 72.10621957 -92.38846579 69.96061907 -91.5 67.8125 C-91.18925537 67.03729004 -90.87851074 66.26208008 -90.55834961 65.46337891 C-87.50539932 57.95019318 -84.10209655 50.60686614 -80.5625 43.3125 C-81.531875 42.85875 -82.50125 42.405 -83.5 41.9375 C-86.5625 40.3125 -86.5625 40.3125 -87.5625 38.3125 C-87.79524209 35.43339412 -87.98222757 32.57103505 -88.125 29.6875 C-88.16818359 28.88570312 -88.21136719 28.08390625 -88.25585938 27.2578125 C-88.36201457 25.2762489 -88.46276855 23.29439729 -88.5625 21.3125 C-83.58132215 18.94756821 -79.42140358 17.82763354 -73.875 17.25 C-67.87383527 16.80064102 -67.87383527 16.80064102 -62.5625 14.3125 C-61.2988465 12.2201948 -61.2988465 12.2201948 -60.4375 9.8125 C-59.33433537 7.00444459 -58.71983964 5.46983964 -56.5625 3.3125 C-50.16032602 1.21724306 -44.26199944 1.09082539 -37.5625 1.3125 C-37.60890625 1.92738281 -37.6553125 2.54226562 -37.703125 3.17578125 C-38.10969635 8.16009039 -38.10969635 8.16009039 -35.8125 12.3125 C-28.20856076 15.69202855 -20.30894336 14.71656863 -12.5625 12.3125 C-9.36287608 10.17941739 -9.10308682 9.74152418 -8 6.3125 C-6.45096469 1.55162313 -5.12697352 0.0240703 0 0 Z " fill="#A7A7A7" transform="translate(298.5625,27.6875)"/>
<path d="M0 0 C0.66 2.31 1.32 4.62 2 7 C3.65 5.68 5.3 4.36 7 3 C11.02008856 6.6180797 12.73826641 9.5397043 13.3125 14.9375 C12.84925412 19.4773096 11.21960049 22.78039951 8 26 C7.7991471 28.07739281 7.68691803 30.16383871 7.625 32.25 C7.28113635 37.62731603 6.76863938 40.91730734 3 45 C2.071875 45.639375 1.14375 46.27875 0.1875 46.9375 C-2.35641044 48.88154905 -2.35641044 48.88154905 -2.3125 52.3125 C-0.70123878 56.83937676 1.46621411 58.31823369 5.12109375 61.25390625 C8.88996447 64.7563703 8.87969093 68.95159236 9.4375 73.8125 C9.1926824 82.2342255 3.49598371 89.12057557 -2 95 C-5.915141 91.64416485 -8.0795774 87.71933638 -10 83 C-10 82.34 -10 81.68 -10 81 C-10.99 81 -11.98 81 -13 81 C-13.19335938 81.73605469 -13.38671875 82.47210938 -13.5859375 83.23046875 C-13.84632812 84.20628906 -14.10671875 85.18210937 -14.375 86.1875 C-14.63023438 87.15042969 -14.88546875 88.11335938 -15.1484375 89.10546875 C-15.94766296 91.82210207 -16.9031362 94.39137175 -18 97 C-19.66289063 96.7834375 -19.66289063 96.7834375 -21.359375 96.5625 C-22.82289983 96.37486861 -24.28644244 96.18737588 -25.75 96 C-26.47960937 95.90460938 -27.20921875 95.80921875 -27.9609375 95.7109375 C-31.34856804 95.27978452 -34.57854859 95 -38 95 C-37.98361491 123.25241903 -37.98361491 123.25241903 -26.375 147.9375 C-22.56030123 150.2687048 -18.7867821 151.60723203 -14.56640625 153.03125 C-11.47830039 154.19692771 -9.29571604 155.6277601 -7 158 C-6.67 158.99 -6.34 159.98 -6 161 C-6.7425 161.825 -7.485 162.65 -8.25 163.5 C-14.93077941 171.07909368 -14.48779843 182.22307055 -14.375 191.75 C-14.36484863 192.98556641 -14.35469727 194.22113281 -14.34423828 195.49414062 C-14.07708382 211.22518917 -11.74733751 225.20625897 -1.25 237.5625 C4.73691067 244.87167315 4.3763216 255.40539844 5.125 264.5 C5.21136719 265.45519531 5.29773438 266.41039062 5.38671875 267.39453125 C5.94503167 273.94363048 6.10097182 280.42881775 6 287 C1.84280235 283.96979848 -1.18989912 280.50977215 -4.1875 276.375 C-4.65800781 275.72982422 -5.12851563 275.08464844 -5.61328125 274.41992188 C-13.97467551 262.67149224 -22.34579229 249.35283177 -24.22802734 234.91748047 C-25.99019201 221.41188637 -30.14253299 210.2083049 -36 198 C-41.65250918 185.96224896 -44.53262748 174.70582967 -45.625 161.4375 C-46.52616013 151.43546704 -49.79310628 141.94425201 -52.81298828 132.41967773 C-53.20599121 131.17516846 -53.59899414 129.93065918 -54.00390625 128.6484375 C-54.36299072 127.53645996 -54.7220752 126.42448242 -55.09204102 125.27880859 C-56.70742713 119.4453492 -57.12059997 113.88508313 -57.0625 107.8515625 C-57.05871338 107.1947348 -57.05492676 106.5379071 -57.05102539 105.86117554 C-57.03488793 103.0870558 -57.00676494 100.31309154 -56.97949219 97.5390625 C-56.91152729 89.95561109 -56.93233768 82.52368289 -58 75 C-55.12446386 74.04148795 -52.71255958 73.83143659 -49.70678711 73.70996094 C-32.92646718 73.2132656 -32.92646718 73.2132656 -19 65 C-13.31235777 58.29062563 -14.54624563 49.23606995 -15 41 C-15.1414931 39.62218199 -15.30121519 38.24572513 -15.5 36.875 C-16.95281495 25.61568412 -16.95385262 15.79124468 -10.09375 6.38671875 C-4.76982893 0 -4.76982893 0 0 0 Z " fill="#A8A8A8" transform="translate(95,247)"/>
<path d="M0 0 C0 4.09022459 -1.55613933 5.08381767 -4.25 8.125 C-25.34212974 32.63880941 -41.95821612 62.08769642 -54 92 C-54.4846875 93.20398438 -54.969375 94.40796875 -55.46875 95.6484375 C-87.42113942 177.07446678 -87.56228285 269.94256301 -52.82421875 350.65087891 C-42.52652736 373.76919608 -30.58179077 396.39397493 -15.1015625 416.4609375 C-14.61429687 417.09257813 -14.12703125 417.72421875 -13.625 418.375 C-12.87089844 419.34566406 -12.87089844 419.34566406 -12.1015625 420.3359375 C-11 422 -11 422 -11 424 C-10.34 424 -9.68 424 -9 424 C-8.34 425.65 -7.68 427.3 -7 429 C-6.34 429 -5.68 429 -5 429 C-4 430.66666667 -3 432.33333333 -2 434 C-0.3563186 435.68933922 1.3142876 437.35259924 3 439 C4.00822062 440.15432952 5.00733461 441.31664177 6 442.484375 C10.24240134 447.35714883 14.75554996 451.94163537 19.32324219 456.50854492 C20.73919947 457.92668284 22.14698289 459.35296665 23.5546875 460.77929688 C29.72406284 466.96156089 36.14631429 472.59160982 43 478 C43.75152344 478.60545654 44.50304687 479.21091309 45.27734375 479.8347168 C75.71356941 504.33462651 109.94045211 522.69237914 147 535 C147.94810547 535.31952637 148.89621094 535.63905273 149.87304688 535.96826172 C173.58373412 543.88147608 198.13410628 548.62767403 223 551 C224.47448608 551.14139404 224.47448608 551.14139404 225.97875977 551.28564453 C234.96262675 552.06406531 243.92637368 552.24290576 252.9375 552.25 C254.1077774 552.25101212 254.1077774 552.25101212 255.30169678 552.25204468 C328.89991115 552.15211055 403.33450079 527.44086681 460.6015625 480.6953125 C463 479 463 479 466 479 C438.54804411 504.92684723 402.42747696 525.42103453 367 538 C365.72607663 538.48179015 364.45267982 538.96497391 363.1796875 539.44921875 C339.60977396 548.29590944 314.92273471 553.73037262 290 557 C289.09733398 557.11859375 288.19466797 557.2371875 287.26464844 557.359375 C249.67698534 562.01797139 210.81462448 559.41069232 174 551 C173.03787598 550.78553223 172.07575195 550.57106445 171.08447266 550.35009766 C160.85803258 548.06463667 150.87653817 545.53143661 141 542 C138.09400925 541.06917484 135.18719864 540.14133291 132.27734375 539.22265625 C128.40841787 537.77930249 124.69553823 536.0819527 120.9465332 534.35375977 C118.11327281 533.05204224 115.26693832 531.78538534 112.4140625 530.52734375 C48.82266947 502.2214853 -6.70522851 453.87041754 -41 393 C-41.70769531 391.75065674 -41.70769531 391.75065674 -42.4296875 390.47607422 C-48.53830264 379.64064679 -54.38857752 368.80122905 -59.06787109 357.26806641 C-60.13599117 354.66910478 -61.2506695 352.09193728 -62.36328125 349.51171875 C-79.007673 310.22840334 -86.22198937 267.45335951 -86.25 224.9375 C-86.25067474 224.01170135 -86.25134949 223.08590271 -86.25204468 222.13204956 C-86.23374659 206.243328 -85.42444691 190.72788344 -83 175 C-82.75056641 173.36248779 -82.75056641 173.36248779 -82.49609375 171.69189453 C-72.81633714 110.30610471 -45.83669918 43.87010813 0 0 Z " fill="#AAAAAA" transform="translate(90,120)"/>
<path d="M0 0 C2.94134213 2.768322 4.48120079 4.99496067 4.8125 9 C4.73580345 14.87687332 1.20249984 18.17663061 -2.61328125 22.32421875 C-6.96240835 27.4695591 -8.23060279 31.23290582 -7.875 37.9375 C-7.75026637 43.56239271 -7.92607908 47.19435109 -10.875 52 C-13.875 54 -13.875 54 -17.75 53.4375 C-22.99055662 52.12951214 -27.95373219 50.13556422 -32.95703125 48.12109375 C-35.27702944 47.22974237 -37.42796078 46.41639595 -39.875 46 C-41.75559033 47.88059033 -40.99861218 50.49890038 -41.0078125 52.9921875 C-40.94626531 55.20774018 -40.94626531 55.20774018 -39.875 58 C-38.01477928 59.23277127 -38.01477928 59.23277127 -35.8125 60.1875 C-34.71228516 60.70376953 -34.71228516 60.70376953 -33.58984375 61.23046875 C-33.02394531 61.48441406 -32.45804687 61.73835938 -31.875 62 C-31.6875 64.375 -31.6875 64.375 -31.875 67 C-35.1561302 69.18742014 -37.20584356 69.54442806 -41.0625 70.125 C-42.14917969 70.29257813 -43.23585938 70.46015625 -44.35546875 70.6328125 C-45.60263672 70.81457031 -45.60263672 70.81457031 -46.875 71 C-45.81073277 73.15340052 -44.72177383 75.28555787 -43.5859375 77.40234375 C-43.14507812 78.23894531 -42.70421875 79.07554687 -42.25 79.9375 C-41.80398438 80.77152344 -41.35796875 81.60554688 -40.8984375 82.46484375 C-39.77717804 85.24231469 -39.44388461 87.03733494 -39.875 90 C-42.60112131 91.8174142 -43.81646553 92.32926871 -46.875 92.9375 C-50.01927936 93.60425602 -50.01927936 93.60425602 -52.4375 95.625 C-53.875 97 -53.875 97 -57.1875 97.4375 C-61.72466902 96.89919181 -63.45992946 96.05176516 -66.875 93 C-72.68614246 85.27492517 -75.93842748 76.7480852 -74.875 67 C-72.78040542 60.80901475 -68.61183924 55.73991682 -64.6796875 50.61328125 C-60.44792535 44.48546982 -60.29345157 38.43476983 -59.75195312 31.21289062 C-58.97579887 22.43745285 -56.58643734 16.82586414 -50.875 10 C-49.89859196 7.70721998 -49.03478917 5.41851542 -48.2578125 3.05078125 C-44.77251169 -2.11809708 -36.56490451 -2.95649378 -30.86499023 -4.06689453 C-19.89994774 -6.03666264 -9.44181651 -6.56822018 0 0 Z " fill="#A7A7A7" transform="translate(373.875,115)"/>
<path d="M0 0 C11.89076589 4.89619772 24.886385 16.32957749 32 27 C32.25760279 29.69452521 32.08900053 32.28548375 32 35 C32.71285156 35.07476563 33.42570312 35.14953125 34.16015625 35.2265625 C40.91892592 36.15441513 45.73263912 37.45125528 50 43 C51.15841656 45.26110175 52.11790049 47.5447808 53.0625 49.90234375 C55.71493914 55.83717634 61.73118714 58.95939375 66.98828125 62.3515625 C67.65214844 62.89554688 68.31601563 63.43953125 69 64 C69 64.99 69 65.98 69 67 C47.79245382 65.74485951 47.79245382 65.74485951 42.17578125 61.6796875 C40.9375 60.1875 40.9375 60.1875 39 57 C35.91295428 52.64181781 33.46831888 50.56486619 28.6875 48.125 C13.04161444 39.89363049 6.73068382 23.20635313 0.99609375 7.29296875 C0 4 0 4 0 0 Z " fill="#A8A8A8" transform="translate(111,548)"/>
<path d="M0 0 C0.495 0.99 0.495 0.99 1 2 C-9.67682057 16.29199683 -21.17596233 29.59187706 -34 42 C-34 39 -34 39 -32.12890625 36.90625 C-31.28199219 36.1121875 -30.43507813 35.318125 -29.5625 34.5 C-23.21134212 28.32749635 -17.75665841 21.62140226 -12.390625 14.58984375 C-11.95041016 14.01339111 -11.51019531 13.43693848 -11.05664062 12.84301758 C-9.81836307 11.21488619 -8.58861305 9.58027945 -7.359375 7.9453125 C-5.04707486 5.05876564 -2.66122365 2.55741706 0 0 Z " fill="#AFAFAF" transform="translate(612,537)"/>
<path d="M0 0 C0.66 0.33 1.32 0.66 2 1 C-10.15902331 12.48352201 -24.00905531 21.91392673 -38 31 C-38 28 -38 28 -36.44921875 26.08984375 C-33.44768757 23.52872863 -30.19491731 21.56563127 -26.8125 19.5625 C-17.58039036 13.96117686 -7.6705172 7.6705172 0 0 Z " fill="#B2B2B2" transform="translate(554,598)"/>
<path d="M0 0 C0.66 0.33 1.32 0.66 2 1 C0.63603413 5.09189762 -1.34848983 5.61547327 -5.0625 7.6875 C-6.71958984 8.62142578 -6.71958984 8.62142578 -8.41015625 9.57421875 C-9.26480469 10.04472656 -10.11945313 10.51523438 -11 11 C-10.68276924 7.94918504 -10.11098219 7.09333887 -7.71484375 5.078125 C-6.34005859 4.17320313 -6.34005859 4.17320313 -4.9375 3.25 C-4.01839844 2.63640625 -3.09929687 2.0228125 -2.15234375 1.390625 C-1.44207031 0.93171875 -0.73179687 0.4728125 0 0 Z " fill="#AEAFAF" transform="translate(158,60)"/>
<path d="M0 0 C1.32 0 2.64 0 4 0 C1.94773694 4.10452613 -2.99104291 6.05204688 -7 8 C-6.02133662 6.85373678 -5.04205413 5.70800212 -4.0625 4.5625 C-3.51722656 3.92441406 -2.97195312 3.28632812 -2.41015625 2.62890625 C-1.63204305 1.73008851 -0.84063472 0.84063472 0 0 Z " fill="#B5B5B5" transform="translate(126,84)"/>
</svg>
