<?xml version="1.0" encoding="UTF-8" standalone="no"?>
<!-- Created with Inkscape (http://www.inkscape.org/) -->

<svg
   version="1.1"
   id="svg1"
   width="1057.3333"
   height="498.66666"
   viewBox="0 0 1057.3333 498.66666"
   sodipodi:docname="inverted_path.svg"
   inkscape:version="1.4.2 (ebf0e940, 2025-05-08)"
   xmlns:inkscape="http://www.inkscape.org/namespaces/inkscape"
   xmlns:sodipodi="http://sodipodi.sourceforge.net/DTD/sodipodi-0.dtd"
   xmlns="http://www.w3.org/2000/svg"
   xmlns:svg="http://www.w3.org/2000/svg">
  <defs
     id="defs1" />
  <sodipodi:namedview
     id="namedview1"
     pagecolor="#ffffff"
     bordercolor="#000000"
     borderopacity="0.25"
     inkscape:showpageshadow="2"
     inkscape:pageopacity="0.0"
     inkscape:pagecheckerboard="0"
     inkscape:deskcolor="#d1d1d1"
     showgrid="false"
     inkscape:zoom="0.62176113"
     inkscape:cx="511.45043"
     inkscape:cy="200.23767"
     inkscape:window-width="1360"
     inkscape:window-height="750"
     inkscape:window-x="0"
     inkscape:window-y="25"
     inkscape:window-maximized="0"
     inkscape:current-layer="g1" />
  <g
     inkscape:groupmode="layer"
     inkscape:label="Image"
     id="g1">
    <path
       style="fill:none;stroke:#090909"
       d="m 47.577436,74.274801 c 6.625544,0 20.159066,-0.03967 25.999998,5.29e-4 2.595601,0.01786 3.535268,-0.06673 5.333333,1.0684 5.000645,3.156901 8.784789,10.577758 13.333332,10.323038 3.632751,-0.20345 6.288543,-4.058024 10.000001,-4.844116 4.45954,-0.944539 10.40896,1.97758 13.13272,4.855428 1.96713,2.078451 4.88122,9.899251 6.57613,11.355469 1.30869,1.12438 4.50409,0.587443 6.27829,1.12858 5.58227,1.702596 3.34619,3.839311 3.34619,12.779341 0,8.59737 0.47533,20.44852 1.52366,29.33333 0.79735,6.75773 0.16097,15.53226 0.50257,23.33333 0.70733,16.15314 2.92778,31.10773 3.99023,46.66667 0.51041,7.47477 0.73239,13.33565 1.43004,20.66666 0.22553,2.36992 0.39501,13.11489 0.57973,17.33334 1.02867,23.49151 0.67833,43.76369 0.64043,67.33333 -0.009,5.32279 -0.27433,24.38055 0.0391,28 0.35108,4.05428 1.96315,4.56038 3.29424,6 2.30151,-2.53085 4.07231,-4.27407 5.38631,-12 1.94517,-11.43708 2.18428,-26.92745 4.00052,-38 1.77189,-10.80217 3.24833,-18.87103 3.27983,-28.66667 0.0158,-4.92379 0.3022,-11.29795 0.857,-16 1.27874,-10.83766 2.3553,-22.36194 3.20267,-34.66666 0.71129,-10.32866 2.11598,-22.62423 3.55402,-32.66667 1.04285,-7.28263 2.28,-17.84176 3.3359,-25.33333 0.70466,-4.99956 0.936,-12.60966 1.72993,-16 0.39263,-1.67664 0.63899,-4.4781 3.29476,-4.4362 1.87395,0.0296 3.41986,3.25704 3.97583,4.42387 0.94243,1.9779 5.24243,5.65002 9.29423,3.32715 5.80176,-3.32609 7.07624,-19.40035 8.85649,-25.98149 3.52484,-13.03043 8.70497,-32.76908 14.06429,-43.3328 1.81604,-3.57959 2.60086,-4.282015 5.75263,-7.355514 1.75716,0.988561 1.41232,3.118901 2.58276,6.031417 1.77394,4.414266 5.67175,24.834107 12.83333,26.761307 2.23071,0.60031 4.952,-0.17183 6.38735,-1.63989 3.50691,-3.58679 3.39988,-6.385415 5.87654,-12.464516 3.1849,-7.817464 12.7487,-25.875162 20.07202,-12.666138 1.47748,2.664917 1.79724,5.094971 2.21706,7.999471 1.25202,8.661865 2.60972,14.903483 3.92491,24.666663 1.74396,12.94605 3.36625,22.96965 3.52417,34.66667 0.0408,3.0216 0.6569,6.46513 1.04732,9.33333 0.66343,4.87378 0.21234,20.72127 0.28601,26 0.09,6.44704 1.07277,21.89863 2.44385,25.04175 0.97992,-1.1757 -0.5565,-8.4067 1.95532,-15.01551 1.13495,-2.98614 3.32503,-4.26328 3.88324,-5.38582 1.03123,-2.07373 1.71122,-8.38955 2.51235,-12.64042 3.59271,-19.06315 1.18276,-44.52877 8.57253,-64.66666 1.98562,-5.41101 7.82871,-12.967166 11.29681,-15.850304 3.17306,-2.637858 4.60913,-1.993042 7.99744,-4.482544 3.71444,-2.729126 4.67641,-5.867472 8.06274,-8.848226 0.93052,-0.819091 2.12156,-1.915974 3.92953,-1.788085 2.64321,0.186971 3.29301,1.939778 4.33437,4.969156 3.73413,10.862874 5.85437,21.793543 8.92488,34.000003 0.95091,3.78023 3.61863,13.21923 8.01492,12.41564 3.62581,-0.66276 4.63069,-7.93558 5.21968,-11.74898 0.91724,-5.93876 0.88949,-11.175 1.80143,-17.33333 1.29391,-8.737752 1.28528,-16.534342 7.85698,-19.844156 3.37972,-1.702189 6.45813,1.795288 9.19136,1.56486 1.62154,-0.136719 7.29,-2.275554 9.33333,-2.708862 7.14576,-1.515341 13.30892,4.713989 20,1.403279 12.58753,-6.228271 17.41744,-8.987915 25.34363,4.251546 1.4386,2.402995 3.72469,6.031576 6.59363,5.445475 2.37561,-0.485351 2.8503,-2.574218 3.67639,-4.11267 1.0898,-2.029582 3.50309,-6.86499 7.05354,-7.174357 7.07325,-0.616293 10.03984,2.838501 15.99947,3.812215 4.68132,0.764852 8.53284,0.66748 12.30347,4.377075 2.86027,2.813924 5.92293,4.050293 9.02987,3.963989 2.9329,-0.08146 4.61409,-2.312988 6.66666,-4.311727 7.7863,-7.582031 14.00533,-11.475301 20.66614,-9.505126 3.00305,0.888264 5.01965,6.940063 10.02677,7.369872 3.18616,0.273519 5.82011,-1.865437 8.64042,-3.483072 4.89445,-2.807292 7.41317,-5.726034 12.66667,-6.736084 12.47859,-2.399129 15.94047,13.626098 23.99947,10.348225 3.1567,-1.283935 3.84961,-2.994791 6.11369,-5.211914 1.63891,-1.604939 3.08268,-2.800577 5.22017,-3.820475 4.61792,-2.20341 7.85502,-1.596801 14,-2.1816 9.25114,-0.880411 15.34322,-2.407389 22,1.212443 2.8199,1.533407 8.7491,9.337036 11.34309,9.723796 3.26933,0.487467 8.3617,-3.365804 11.32357,-5.175415 5.36764,-3.2795 15.52157,-8.291138 22,-9.37089 1.99504,-0.33252 3.90999,-0.635254 6,-0.463501 4.78202,0.392985 7.15698,3.626342 11.05041,7.953206 6.1366,6.819743 10.45097,11.441691 13.59721,21.340535 3.68441,11.591883 4.59684,22.371013 5.41203,33.999993 0.72518,10.34493 2.6311,21.74716 3.33333,32 0.21664,3.16244 0.60173,4.72168 0.60702,8 0.005,3.06517 0,4.52181 0,7.33334 0,5.45709 -0.0641,12.39856 0.003,18 0.0732,6.15531 0.44157,10.84106 1.33073,17.33333 0.39429,2.87866 1.22689,9.03595 2.0293,11.33282 1.36466,3.90636 3.37565,3.49555 6.54636,7.71993 6.3631,-7.87184 5.84386,-45.87316 9.24336,-69.71942 0.83699,-5.87146 2.8999,-24.32181 5.03295,-27.93005 0.71648,-1.21191 1.91635,-2.86466 4.48096,-2.98816 3.25016,-0.15649 4.19067,1.70606 5.55249,5.58488 1.05013,2.99105 3.30013,9.94511 4.59001,11.98918 0.61515,0.97485 2.42659,3.44242 4.49739,2.93571 1.80746,-0.4423 2.50602,-1.49752 3.40796,-4.25875 1.30892,-4.00737 2.12874,-10.21065 2.88525,-13.99947 1.30583,-6.5402 3.0114,-20.6615 4.64974,-27.33333 1.2002,-4.88737 4.15243,-16.275597 5.82251,-19.99691 1.17546,-2.6191 1.75936,-3.340454 3.93824,-3.841594 2.82023,-0.648681 5.84879,1.828003 6.97021,3.85083 2.43522,4.392538 7.01644,16.746094 9.24487,20.654334 2.03841,3.57504 4.34432,8.6025 8.16252,4.55506 7.36141,-7.80355 4.00228,-24.473961 12.42855,-28.346194 0.60017,-0.275838 20.64721,0.973552 21.85798,2.667155 3.73593,5.225749 3.89519,22.400799 5.32561,29.790649 2.22981,11.51965 2.70931,21.67781 3.8868,34 0.56543,5.91703 0.70996,10.5721 0.78247,16.66666 0.16292,13.70215 2.73372,28.35006 4.18774,40.66667 0.58626,4.96631 0.74772,10.21269 1.72835,12.66667 0.57707,1.44399 1.91781,2.21085 3.01547,5.33333 1.59838,4.54683 0.993,12.9058 1.56859,13.60087 1.22932,-3.81485 3.29054,-18.2477 3.48748,-26.26754 0.22395,-9.12176 -0.10962,-19.81248 1.06274,-28 1.36955,-9.56455 2.53874,-18.10131 3.50049,-28 0.88655,-9.12491 0.94523,-15.15116 1.50618,-23.33333 0.36394,-5.30798 1.14283,-14.36682 4.40845,-18.44958 1.76302,-2.2041 3.51896,-2.75916 5.5319,-4.43416 5.13224,-4.27059 16.23804,-21.020309 22.4043,-17.097213 2.6333,1.675374 3.89526,11.472613 4.44295,15.314293 2.1761,15.26464 1.09131,28.83426 2.59928,44.66666 1.93205,20.2853 3.85067,38.83372 3.8868,61.33333 0.0243,15.08944 2,29.58852 2,44.66667 0,19.61747 0.61157,39.57342 2.7006,57.33333 0.66089,5.61843 -2.0141,55.74884 1.06123,59.4813 2.28441,-12.01826 3.45113,-19.96397 4.89082,-35.09072 2.22445,-23.36773 2.03604,-7.70711 3.40691,-26.39058 0.32105,-4.37492 0.32284,-6.64062 0.79786,-10.66667 0.69751,-5.91125 0.47631,-8.94079 0.47631,-16 0,-11.13456 0.40088,-22.32946 2,-33.99999 1.64095,-11.97545 3.02824,-25.94294 3.32357,-38 0.0616,-2.51573 -0.13143,-4.40039 0.0694,-7.33334 0.21297,-3.10903 0.60237,-5.09358 0.60701,-8 0.004,-2.56376 -10e-4,-3.95623 0,-6.66666 0.002,-4.06248 0.57414,-6.6211 0.6569,-10 0.47885,-19.54769 1.58871,-39.68942 5.3431,-59.33334 1.63754,-8.56819 2.91626,-16.10945 4,-23.99999 0.94173,-6.856652 1.00798,-13.349205 4.27832,-19.333336 4.38281,-8.019735 19.04842,-11.106404 27.05501,-12.5 5.0778,-0.883829 8.67082,-2.125081 12.66618,1.265422 7.14535,6.063598 6.34367,9.660156 9.13062,15.127604 0.40104,0.786824 0.76692,5.23071 1.30232,5.932452 1.57323,-5.6772 5.41307,-10.808006 7.9579,-12.943429 1.61418,-1.354484 1.8004,6.636913 3.60965,7.991405 1.36588,1.022583 2.35115,2.259969 4,2.229939 3.16235,-0.05762 3.43375,-1.94991 5.61629,-4.436726 5.3909,-6.142578 9.0353,-8.426717 14.3838,-10"
       id="path1"
       sodipodi:nodetypes="csssscsssssssscscsssssssscsssscsssssssssscsssssssssssssssssssssssssssssssssssssssssssscsscsssssssssssssssssssssscsssssssssssscsssssssscssssssscssssc" />
  </g>
</svg>
